<svg fill="#000000" xmlns="http://www.w3.org/2000/svg" viewBox="0 0 100 100" width="100px" height="100px"><path d="M32.5,28h-1c-0.276,0-0.5,0.224-0.5,0.5v43c0,0.276,0.224,0.5,0.5,0.5h1c0.276,0,0.5-0.224,0.5-0.5v-43 C33,28.224,32.776,28,32.5,28z"/><path d="M40.5,28h-1c-0.276,0-0.5,0.224-0.5,0.5v43c0,0.276,0.224,0.5,0.5,0.5h1c0.276,0,0.5-0.224,0.5-0.5v-43 C41,28.224,40.776,28,40.5,28z"/><path d="M53.5,28h-1c-0.276,0-0.5,0.224-0.5,0.5v43c0,0.276,0.224,0.5,0.5,0.5h1c0.276,0,0.5-0.224,0.5-0.5v-43 C54,28.224,53.776,28,53.5,28z"/><path d="M57.5,28h-1c-0.276,0-0.5,0.224-0.5,0.5v43c0,0.276,0.224,0.5,0.5,0.5h1c0.276,0,0.5-0.224,0.5-0.5v-43 C58,28.224,57.776,28,57.5,28z"/><path d="M48.5,28h-4c-0.276,0-0.5,0.224-0.5,0.5v43c0,0.276,0.224,0.5,0.5,0.5h4c0.276,0,0.5-0.224,0.5-0.5v-43 C49,28.224,48.776,28,48.5,28z"/><path d="M28.5,28c-0.276,0-0.5,0.224-0.5,0.5v43c0,0.276,0.224,0.5,0.5,0.5s0.5-0.224,0.5-0.5v-43C29,28.224,28.776,28,28.5,28z"/><path d="M36.5,28c-0.276,0-0.5,0.224-0.5,0.5v43c0,0.276,0.224,0.5,0.5,0.5s0.5-0.224,0.5-0.5v-43C37,28.224,36.776,28,36.5,28z"/><path d="M62.108,82H31c-6.617,0-12-5.383-12-12V31c0-6.617,5.383-12,12-12h39c6.617,0,12,5.383,12,12v31.108	c0.708,0.43,1.378,0.914,2,1.455V31c0-7.72-6.28-14-14-14H31c-7.72,0-14,6.28-14,14v39c0,7.72,6.28,14,14,14h32.563	C63.022,83.378,62.538,82.708,62.108,82z"/><path d="M59,74.5C59,65.953,65.953,59,74.5,59S90,65.953,90,74.5S83.047,90,74.5,90S59,83.047,59,74.5z M61,74.5	C61,81.945,67.055,88,74.5,88S88,81.945,88,74.5S81.945,61,74.5,61S61,67.055,61,74.5z"/><path d="M60.243,71.918c0.167-0.928,0.423-1.824,0.757-2.681V28.5c0-0.276-0.224-0.5-0.5-0.5S60,28.224,60,28.5v43	C60,71.68,60.1,71.831,60.243,71.918z"/><path d="M68,61.552V28.5c0-0.276-0.224-0.5-0.5-0.5h-4c-0.276,0-0.5,0.224-0.5,0.5v37.193C64.328,63.961,66.034,62.541,68,61.552z"/><path d="M72,60.23V28.5c0-0.276-0.224-0.5-0.5-0.5h-1c-0.276,0-0.5,0.224-0.5,0.5v32.221C70.647,60.509,71.316,60.349,72,60.23z"/><polyline fill="none" stroke="#000000" stroke-linecap="round" stroke-linejoin="round" stroke-miterlimit="10" points="78.5,70.5 81.5,70.5 81.5,67.5"/><path fill="none" stroke="#000000" stroke-linecap="round" stroke-linejoin="round" stroke-miterlimit="10" d="M81.151,70.056	C79.716,67.912,77.273,66.5,74.5,66.5c-4.418,0-8,3.582-8,8"/><polyline fill="none" stroke="#000000" stroke-linecap="round" stroke-linejoin="round" stroke-miterlimit="10" points="70.5,78.5 67.5,78.5 67.5,81.5"/><path fill="none" stroke="#000000" stroke-linecap="round" stroke-linejoin="round" stroke-miterlimit="10" d="M67.849,78.944	c1.435,2.144,3.878,3.556,6.651,3.556c4.418,0,8-3.582,8-8"/></svg>