<?xml version="1.0" encoding="UTF-8"?><svg version="1.1" id="Layer_1" xmlns="http://www.w3.org/2000/svg" xmlns:xlink="http://www.w3.org/1999/xlink" x="0px" y="0px" width="162px" height="239px" viewBox="0 0 162 239" enable-background="new 0 0 162 239" xml:space="preserve">
<path fill="#D2D5E3" d="M74.799,128.055c1.207,0.816,2.702,1.807,4.026,2.417c0.641-1.58,0.703-2.997,1.123-4.649
	c0.063-0.248,0.124-0.501,0.106-0.756c-0.042-0.614-0.515-1.102-0.974-1.513c-4.46-3.988-10.309-6.224-16.247-7.006
	s-11.986-0.183-17.863,0.972c-1.534,0.302-3.095,0.654-4.422,1.48c-0.891,0.555-1.649,1.306-2.553,1.84
	c-0.881,0.521-1.942,0.875-2.481,1.744c3.68-0.216,7.371-0.242,11.054-0.08c3.361,0.148,6.855-0.078,10.197,0.307
	c4.147,0.477,8.158,1.613,12.156,2.812c1.007,0.302,2.011,0.645,2.924,1.167C72.78,127.324,73.907,127.451,74.799,128.055z"/>
<path fill="#D2D5E3" d="M31.422,150.872c2.245,2.441,6.111,3.226,9.134,1.854c-0.669-0.684-1.708-0.801-2.596-1.159
	c-1.395-0.564-1.154-0.75-1.837-2.088c-0.682-1.338-1.705-4.568-2.051-6.029c-1.073-4.524-1.734-7.965-2.807-12.488
	c-0.321-1.356-0.434-3.456-0.324-4.845c0.141-1.779,4.348-4.454,5.721-5.598c-1.92-0.262-8.459,1.161-10.347,1.595
	c-0.4,0.092-0.93,0.144-1.115-0.222c-1.167,2.869-1.047,5.824-0.412,8.854c0.967,4.612,2.157,10.972,3.454,15.503
	C28.867,148.426,29.887,149.203,31.422,150.872z"/>
<path fill="none" stroke="#290316" stroke-width="0.6" stroke-miterlimit="10" d="M31.422,150.872
	c2.245,2.441,6.111,3.226,9.134,1.854c-0.669-0.684-1.708-0.801-2.596-1.159c-1.395-0.564-1.154-0.75-1.837-2.088
	c-0.682-1.338-1.705-4.568-2.051-6.029c-1.073-4.524-1.734-7.965-2.807-12.488c-0.321-1.356-0.434-3.456-0.324-4.845
	c0.141-1.779,4.348-4.454,5.721-5.598c-1.92-0.262-8.459,1.161-10.347,1.595c-0.4,0.092-0.93,0.144-1.115-0.222
	c-1.167,2.869-1.047,5.824-0.412,8.854c0.967,4.612,2.157,10.972,3.454,15.503C28.867,148.426,29.887,149.203,31.422,150.872z"/>
<path fill="#635F62" d="M42.508,112.886c-3.336,0.208-9.151,1.208-12.42,1.899c-2.083,0.44-4.225,0.977-5.899,2.29
	c-1.673,1.314-2.752,3.612-2.024,5.608c0.766,2.098,3.24,3.143,5.478,3.062c2.238-0.08,4.339-1.017,6.452-1.756
	c5.101-1.783,10.108-3.373,15.496-3.801c4.867-0.387,8.453-0.178,14.822,0.831c2.65,0.42,6.429,2.032,8.869,3.146
	c5.505,2.513,9.872,5.649,14.346,9.716c0.682-0.526,2.354-1.057,3.036-1.583c-1.574-2.785-4.388-5.497-6.9-7.483
	c-1.239-0.98-2.621-1.762-3.997-2.54c-3.976-2.248-8.818-4.87-13.212-6.125C60.584,114.445,50.127,112.412,42.508,112.886z"/>
<g>
	<path fill="#290316" d="M87.608,134.404l-0.249-0.226c-4.808-4.372-9.201-7.348-14.243-9.648c-3.841-1.755-6.791-2.803-8.766-3.115
		c-4.52-0.717-7.563-1.009-10.504-1.009c-1.331,0-2.673,0.058-4.224,0.181c-5.473,0.435-10.606,2.105-15.396,3.78
		c-0.383,0.134-0.766,0.274-1.149,0.415c-1.734,0.637-2.31,1.024-4.203,1.093l-1.472,0.275c-2.189,0-4.774-1.029-5.614-3.33
		c-0.852-2.333,0.077-4.038,1.711-5.32c1.748-1.372,4.395-2.66,6.505-3.106c2.931-0.619,8.911-1.685,12.478-1.907
		c0.754-0.047,1.56-0.07,2.396-0.07c7.425,0,16.398,2.038,21.809,3.583c4.268,1.22,8.893,3.449,13.277,5.928
		c1.368,0.774,2.783,1.575,4.048,2.575c1.826,1.442,5.163,4.349,7.001,7.599l0.17,0.303l-0.274,0.211
		c-0.378,0.292-0.971,0.559-1.598,0.84c-0.558,0.251-1.135,0.51-1.438,0.744L87.608,134.404z M53.847,119.606
		c2.985,0,5.713,0.358,10.278,1.081c2.047,0.325,5.417,1.33,9.324,3.114c5.039,2.3,9.435,5.259,14.216,9.574
		c0.361-0.221,0.829-0.431,1.318-0.65c0.41-0.185,0.83-0.373,1.145-0.554c-1.805-3.001-4.893-5.684-6.611-7.042
		c-1.217-0.961-2.604-1.746-3.945-2.506c-4.342-2.455-8.937-4.892-13.125-6.088c-5.784-1.652-14.697-3.32-21.568-3.32
		c-0.819,0-1.608,0.023-2.346,0.069c-3.524,0.22-9.453,1.277-12.363,1.891c-2.018,0.426-4.123,0.948-5.734,2.213
		c-1.459,1.146-2.578,3.285-1.895,5.157c0.708,1.937,2.952,2.804,4.862,2.804l0.226-0.004c1.766-0.064,3.499-0.7,5.174-1.315
		c0.387-0.143,0.773-0.284,1.16-0.42c4.839-1.691,10.029-3.38,15.597-3.822C51.132,119.665,52.494,119.606,53.847,119.606z"/>
</g>
<g>
	<path fill="#290316" d="M84.733,135.368c-0.243,0-0.483-0.035-0.714-0.107c-0.889-0.279-1.506-0.953-2.104-1.605l-0.19-0.206
		c-1.521-1.638-3.443-3.086-6.048-4.558c-3.016-1.705-6.029-3.192-9.365-4.142c-3.768-1.07-8.12-1.576-13.252-1.897
		c-4.217-0.264-8.485-0.27-12.687-0.018c-1.748,0.104-5.291,0.79-6.749,1.665l1-0.75c1.613-0.969,3.854-1.604,5.701-1.714
		c4.234-0.253,8.535-0.248,12.785,0.018c5.19,0.325,9.389,0.982,13.213,2.069c3.397,0.966,6.677,2.336,9.748,4.071
		c2.679,1.515,4.662,3.011,6.241,4.71l0.194,0.211c0.525,0.573,1.069,1.167,1.754,1.382c0.54,0.17,1.17,0.033,1.689-0.362
		c0.328-0.249,0.567-0.569,0.694-0.911l-0.239-0.138l1.091-1.895l0.049,1.395c0.029,0.817-0.386,1.635-1.11,2.186
		C85.92,135.162,85.318,135.368,84.733,135.368z"/>
</g>
<path fill="#635F62" d="M145.532,142.627c-0.528-0.226-1.056-0.075-1.659-0.075c-1.659,0-3.619-0.902-3.469-2.933
	c0.226-0.677,0.21-1.501,0.738-2.103c0.302-0.301,0.726-0.47,0.424-0.846c-0.075-0.15-0.559-0.586-0.635-0.661
	c-0.754-0.301-1.131-0.827-1.81-1.278c-2.05-1.503-4.121-2.761-6.255-4.012c-0.071-1.293-0.264-2.583-0.633-3.863
	c-0.221-0.765-0.514-1.54-1.08-2.102c-0.453-0.449-1.045-0.728-1.633-0.976c-6.85-2.89-14.541-2.805-21.978-2.673
	c-8.62,0.153-17.333,0.318-25.681,2.464c-0.971,0.25-3.869-0.115-4.115,0.854c-0.978,3.846-3.285,13.807-4.38,14.873
	c0,0-4.486,0.773-6.414,0.858c-6.732,0.297-13.143-0.568-19.882-0.669c-3.531-0.053-8.312-0.97-11.821-0.579
	c-4.195,0.468-7.427,1.7-10.976,3.978c-3.832,2.46-6.157,7.528-6.177,12.073c0.284,1.604,8.465,0.352,12.694,0.59
	c8.015,0.451,16.024,0.914,24.09,1.612c2.801,0.242,5.6-0.087,8.401-0.084c8.356,0.009,18.192,0.526,24.946,0.927
	c0.651-2.315,2.645-4.076,4.874-4.993c0.863-0.355,1.761-0.598,2.676-0.768c0.071,0.003,0.142,0.008,0.212,0.011
	c0.829,0.075,1.734,0.075,2.488,0.526c0.98,0.602,1.508,1.805,1.357,3.008c-0.151,1.203-0.98,2.331-1.961,3.008
	c2.79-0.075,5.58-0.376,8.295-0.226c2.564,0.15,5.052,0.451,7.616,0.376c2.015-0.061,6.318,0.983,9.082,0.743
	c0.597,0.351,1.477,0.446,2.114,0.305c1.357-0.226,2.376-0.146,3.734-0.221c0.98-0.075,2.413,0.15,3.393,0.075
	c1.056-0.15,1.961,0.226,3.016,0.075c1.508-0.226,3.77-0.752,5.203-1.278c2.262-0.752,3.242-2.933,1.357-5.866
	c-0.302-0.451-0.226-0.752,0-1.053c0.603-1.203,1.056-2.331,1.734-3.459c0.905-1.504,1.206-3.309,2.111-4.888
	C145.607,143.229,145.683,142.778,145.532,142.627z"/>
<path fill="#635F62" d="M161.518,10.949c0-0.15-0.075-0.301-0.075-0.451c-0.226-1.654-0.83-3.234-1.81-4.587
	c-0.679-0.902-1.583-1.579-2.639-2.03c-1.885-0.827-3.997-0.978-5.957-1.354c-2.413-0.451-5.052-0.376-7.541-0.677
	c-2.79-0.301-5.58-0.677-8.37-0.827c-3.242-0.15-6.409-0.677-9.652-0.752c-6.485-0.15-13.045,0.376-19.53,0.602
	c-3.016,0.15-6.183,0.301-9.049,1.278c-1.659,0.602-3.016,1.73-3.695,3.61c-1.131,3.234-1.206,6.543-0.603,9.851
	c0.075,0.226,0.226,0.602,0.075,0.827c-1.131,1.955-1.81,3.76-2.564,5.866c-1.131,3.459-0.98,7.144,0.452,10.528
	c0.151,0.301,0.151,0.602-0.075,0.827c-1.131,1.128-1.81,2.482-2.413,3.91c-0.589,1.247-0.885,2.424-0.479,3.667
	c-0.51,0.789-0.412,1.885-0.316,2.86c0.222,2.258-0.252,3.941,0.406,6.113c-0.96,1.915-1.647,7.616-1.809,10.164
	c-0.406,6.371,0.406,6.923,0.369,8.433c-0.1,4.086-0.093,7.015-0.739,11.048c-1.007,6.289-1.649,12.756-2.991,18.708
	c-1,4.437-3.176,8.286-2.548,13.073c0.085,0.648-0.14,1.598-0.369,2.21c-0.197,0.525-0.853,1.084-1.108,1.583
	c-0.626,1.226-1.06,3.403-0.66,4.842c-0.552,0.686-0.984,1.659-1.284,2.924c0,0.226-0.236,0.705-0.462,0.78
	c-0.057,0.489,0.151,0.978,0.151,1.203c0.075,0.602,0.166,0.765,0.845,1.291c0.679,0.451,1.052,0.658,2.096,1.04
	c1.734,0.451,3.167,0.677,4.977,0.451c0.603-0.075,1.131-0.376,1.734-0.451c0.075,0,0.905-0.301,0.754-0.226
	c1.357-0.526,1.433-0.451,2.639-1.203c0.075,0,0.302-0.15,0.302-0.226c1.885-0.752,2.865-1.354,4.524-1.579
	c0.151,0,0.528-0.15,0.679-0.15c0.302-0.226,2.111-0.226,2.036-0.602c-0.018-0.018-0.045-0.033-0.067-0.05
	c1.972-0.337,3.911-0.965,5.906-0.902c0.123,0.004,0.247,0.015,0.37,0.024c-0.001,0.01-0.002,0.019-0.003,0.029
	c0.06-0.007,0.121-0.011,0.181-0.018c0.751,0.06,1.499,0.17,2.252,0.143c0.874-0.032,1.729-0.251,2.566-0.502
	c0.046-0.014,0.093-0.03,0.139-0.044c2.061-0.107,4.126-0.144,6.19-0.097c4.194,0.097,8.454,0.531,12.325,2.144
	c0.13,0.054,0.277,0.105,0.412,0.097c0.354,0.209,0.846,0.513,1.023,0.454c0.679-0.15,0.905,0.376,1.433,0.752
	c0.754,0.451,1.583,0.677,2.338,1.128c0.151,0.075,0.302,0,0.377,0.226c1.056,0.301,1.961,0.902,2.865,1.429
	c0.603,0.376,1.206,0.677,1.81,0.978c0.528,0.15,1.357,0.451,1.734,0.827c1.885,1.354,3.026,2.146,4.609,3.425
	c1.357,1.128,2.859,2.789,4.138,3.87c1.131,0.602,2.262-0.677,3.318-1.354c0.452-0.301,0.075-0.752-0.377-1.203
	c-0.528-0.602-0.98-1.429-1.433-2.03c-0.151-0.15-0.905-0.602-0.754-0.902c0.754-2.632,1.206-4.587,1.583-7.069
	c0.83-5.114,1.357-10.303,2.564-15.341c0.151-0.677,0.452-1.429,0.377-2.181c-0.009-0.095-0.036-0.172-0.053-0.259
	c1.813-10.172,3.216-20.415,4.238-30.697c0.145-0.241,0.203-0.51,0.113-0.78c-0.01-0.036-0.014-0.069-0.023-0.104
	c0.08-0.82,0.176-1.637,0.251-2.457c-0.019,0.003-0.038,0.006-0.057,0.009c0.02-0.101,0.039-0.202,0.055-0.305
	c0.302-2.106,0.603-4.136,0.905-6.242c-0.151-0.15-0.075-0.226,0-0.376c0.075-0.301,0.075-0.602,0.151-0.902
	c-0.075-0.15,0-0.376,0.075-0.526c0.075-0.752,0.226-1.429,0.302-2.181c-0.075-0.15,0-0.226,0.075-0.376
	c0.151-1.203,0.377-2.482,0.528-3.76c-0.151-0.15-0.075-0.226,0-0.376c0-0.602,0-1.278,0-1.955c-0.075-0.15,0.151-0.376,0.226-0.526
	c0.075-1.429,0.151-2.707,0.377-4.136c0.302-1.654,0.226-3.158,0.452-4.813c-0.075-0.15,0.075-0.376,0.151-0.526
	c0.075-0.827,0.226-1.579,0.302-2.482c0.226-2.106,0.226-4.362,0.226-6.467c0-1.579,0.151-3.159,0.226-4.738
	c0.226-3.835,0.452-7.595,0.679-11.355C162.121,17.642,161.065,14.333,161.518,10.949z"/>
<g>
	<path fill="#5E6067" d="M74.988,224.939H62.11v0.007c-0.045-0.001-0.09-0.007-0.135-0.007c-3.755,0-6.799,3.036-6.799,6.781
		c0,3.745,3.044,6.781,6.799,6.781c0.257,0,0.51-0.017,0.76-0.045h12.252V224.939z"/>
</g>
<path fill="#D2D5E3" d="M95.011,184.364c0-0.451,0.119-15.792-0.032-16.093c-0.151-0.301-2.155-0.226-2.382-0.226
	c-3.619,0-8.295,0-11.839,0c-0.754,0-0.377,0.827-0.377,1.579c0,4.963,0,9.851,0,14.74c0,2.62,0.002,5.238,0.014,7.846H80.08v22.103
	l14.83-1.673v-20.43h-0.172C94.865,189.545,95.011,186.871,95.011,184.364z"/>
<g>
	<polygon fill="#290316" points="80.383,215.059 79.833,215.059 79.879,185.152 80.725,187.224 	"/>
</g>
<g>
	<rect x="94.733" y="186.927" fill="#290316" width="0.6" height="28.132"/>
</g>
<path fill="#5E6067" d="M106.658,224.939H93.78v0.007c-0.045-0.001-0.09-0.007-0.135-0.007c-3.755,0-6.799,3.036-6.799,6.781
	c0,3.745,3.044,6.781,6.799,6.781c0.257,0,0.51-0.017,0.76-0.045h12.252V224.939z"/>
<g>
	<path fill="#290316" d="M93.646,239c-4.025,0-7.3-3.266-7.3-7.28c0-3.893,3.078-7.082,6.935-7.272v-0.002l0.07-0.001
		c0.098-0.004,0.196-0.006,0.295-0.006h13.513v14.517H94.405C94.191,238.981,93.921,239,93.646,239z M93.646,225.438
		c-3.474,0-6.3,2.817-6.3,6.281c0,3.463,2.826,6.28,6.3,6.28c0.238,0,0.474-0.017,0.705-0.042l11.808-0.003v-12.517l-12.389,0.007
		L93.646,225.438z"/>
</g>
<ellipse fill="#5E6067" cx="106.343" cy="231.719" rx="6.799" ry="6.781"/>
<g>
	<path fill="#290316" d="M106.343,239c-4.024,0-7.299-3.266-7.299-7.28s3.274-7.281,7.299-7.281s7.299,3.267,7.299,7.281
		S110.367,239,106.343,239z M106.343,225.438c-3.474,0-6.299,2.817-6.299,6.281c0,3.463,2.825,6.28,6.299,6.28
		s6.299-2.817,6.299-6.28C112.642,228.256,109.816,225.438,106.343,225.438z"/>
</g>
<g>
	<path fill="#5E6067" d="M23.21,224.939H10.332v0.007c-0.045-0.001-0.09-0.007-0.135-0.007c-3.755,0-6.799,3.036-6.799,6.781
		c0,3.745,3.044,6.781,6.799,6.781c0.257,0,0.51-0.017,0.76-0.045H23.21V224.939z"/>
</g>
<g>
	<path fill="#D2C5B9" d="M31.369,232.945c0.075,0.075,0.075,0.15,0.151,0.226C31.444,233.095,31.444,233.02,31.369,232.945z"/>
</g>
<g>
	<path fill="#290316" d="M10.197,239c-4.024,0-7.299-3.266-7.299-7.28c0-3.893,3.078-7.082,6.934-7.272v-0.002l0.069-0.001
		c0.098-0.004,0.196-0.006,0.295-0.006h13.513v14.517H10.957C10.744,238.981,10.473,239,10.197,239z M10.197,224.945v0.493
		c-3.473,0-6.299,2.817-6.299,6.281c0,3.463,2.826,6.28,6.299,6.28c0.239,0,0.474-0.017,0.706-0.042l11.807-0.003v-12.517
		l-12.388,0.007L10.197,224.945z"/>
</g>
<g>
	<ellipse fill="#5E6067" cx="22.894" cy="231.719" rx="6.799" ry="6.781"/>
</g>
<g>
	<path fill="#290316" d="M22.895,239c-4.025,0-7.299-3.266-7.299-7.28s3.274-7.281,7.299-7.281c4.024,0,7.299,3.267,7.299,7.281
		S26.919,239,22.895,239z M22.895,225.438c-3.474,0-6.299,2.817-6.299,6.281c0,3.463,2.826,6.28,6.299,6.28
		c3.473,0,5.873-2.844,6.299-6.28C29.617,228.307,26.944,225.508,22.895,225.438z"/>
</g>
<path fill="#D2D5E3" d="M2.547,227.681c1.26,3.796,9.565,0.395,9.565,0.395s10.252-3.672,13.73-4.656
	c5.168-1.462,15.397-4.925,20.799-5.264c8.433-0.529,27.687,1.786,35.775,4.011c12.757,3.509,21.279,5.206,27.178,3.509
	c1.15-0.331-2.657-1.966-6.933-3.76c-7.765-3.259-24.193-7.154-33.279-8.523c-8.487-1.278-22.61-2.717-31.06-1.253
	c-8.2,1.421-23.903,6.755-30.783,11.03C6.731,223.671,1.715,225.174,2.547,227.681z"/>
<g>
	<path fill="#290316" d="M5.908,229.876C5.907,229.876,5.907,229.876,5.908,229.876c-2.523,0-3.427-1.125-3.74-2.069
		c-0.791-2.384,2.573-3.836,4.379-4.616c0.352-0.151,0.655-0.283,0.781-0.361c6.881-4.276,20.002-8.913,28.172-10.329
		c2.383-0.412,11.167-1.167,16.667-1.167c8.9,0,13.533,1.1,17.275,1.664c9.573,1.441,25.88,5.404,33.375,8.549
		c6.115,2.567,7.427,3.274,7.385,3.982c-0.007,0.119-0.069,0.409-0.496,0.532c-1.588,0.456-3.36,0.678-5.416,0.678
		c-5.61,0-12.844-1.674-21.979-4.187c-7.473-2.056-23.768-4.073-32.898-4.073c-1.022,0-1.945,0.025-2.745,0.076
		c-4.168,0.262-11.395,2.449-16.671,4.047c-1.523,0.462-2.906,0.88-4.044,1.202c-3.426,0.97-13.602,4.611-13.704,4.648
		C12.122,228.504,8.738,229.876,5.908,229.876z M47.135,211.922c-3.464,0-11.463,1.673-13.801,2.078
		c-8.101,1.403-18.773,5.277-25.583,9.509c-0.177,0.109-0.474,0.238-0.886,0.416c-1.46,0.63-4.498,1.941-3.938,3.63
		c0.335,1.01,1.338,1.521,2.98,1.521h0c2.671,0,6.02-1.357,6.054-1.371c0.119-0.043,10.321-3.694,13.772-4.671
		c1.134-0.321,2.538-0.663,4.03-1.198c3.979-1.427,11.889-3.717,16.853-4.08c0.815-0.06,1.756-0.077,2.795-0.077
		c9.185,0,25.585,2.031,33.111,4.102c9.071,2.496,16.245,4.158,21.766,4.158c1.851,0,3.456-0.185,4.896-0.564
		c0.97-0.306-4.28-2.43-6.472-3.35c-7.44-3.123-23.863-6.801-33.389-8.236C65.598,213.228,55.981,211.922,47.135,211.922z"/>
</g>
<path fill="#5E6067" d="M145.366,224.939h-12.878v0.007c-0.045-0.001-0.09-0.007-0.135-0.007c-3.755,0-6.799,3.036-6.799,6.781
	c0,3.745,3.044,6.781,6.799,6.781c0.257,0,0.51-0.017,0.76-0.045h12.252V224.939z"/>
<g>
	<path fill="#290316" d="M132.354,239c-4.025,0-7.3-3.266-7.3-7.28c0-3.893,3.078-7.082,6.935-7.272v-0.002l0.07-0.001
		c0.098-0.004,0.196-0.006,0.295-0.006h13.513v14.517h-12.753C132.899,238.981,132.629,239,132.354,239z M132.354,225.438
		c-3.973,0.118-6.58,2.884-6.3,6.281c0.285,3.451,2.826,6.28,6.3,6.28c0.238,0,0.474-0.017,0.705-0.042l11.808-0.003v-12.517
		l-12.389,0.007L132.354,225.438z"/>
</g>
<ellipse fill="#5E6067" cx="145.051" cy="231.719" rx="6.799" ry="6.781"/>
<g>
	<path fill="#290316" d="M145.051,239c-4.024,0-7.299-3.266-7.299-7.28s3.274-7.281,7.299-7.281s7.299,3.267,7.299,7.281
		S149.075,239,145.051,239z M145.051,225.438c-3.827-0.135-6.686,2.669-6.299,6.281c0.369,3.443,2.825,6.28,6.299,6.28
		s6.299-2.817,6.299-6.28C151.35,228.256,148.524,225.438,145.051,225.438z"/>
</g>
<g>
	<path fill="#290316" d="M61.975,239c-4.025,0-7.299-3.266-7.299-7.28c0-3.893,3.079-7.082,6.935-7.272v-0.002l0.069-0.001
		c0.098-0.004,0.196-0.006,0.295-0.006h13.513v14.517H62.735C62.522,238.981,62.251,239,61.975,239z M61.975,224.945v0.493
		c-3.474,0-5.849,2.847-6.299,6.281c-0.489,3.728,2.385,6.519,6.299,6.28c0.238-0.015,0.474-0.017,0.706-0.042l11.807-0.003v-12.517
		L62.1,225.445L61.975,224.945z"/>
</g>
<ellipse fill="#5E6067" cx="74.673" cy="231.719" rx="6.799" ry="6.781"/>
<g>
	<path fill="#290316" d="M74.672,239c-4.024,0-7.299-3.266-7.299-7.28s3.274-7.281,7.299-7.281c4.025,0,7.299,3.267,7.299,7.281
		S78.697,239,74.672,239z M74.672,225.438c-3.473,0-6.299,2.817-6.299,6.281c0,3.463,2.826,6.28,6.299,6.28
		c3.474,0,6.299-2.817,6.299-6.28C80.972,228.256,78.146,225.438,74.672,225.438z"/>
</g>
<path fill="#D2D5E3" d="M53.814,227.681c1.142,3.796,8.669,0.395,8.669,0.395s9.292-3.672,12.444-4.656
	c4.684-1.462,13.955-4.925,18.851-5.264c7.644-0.529,25.094,1.786,32.424,4.011c11.562,3.509,19.286,5.206,24.632,3.509
	c1.042-0.331-2.408-1.966-6.284-3.76c-7.038-3.259-21.927-7.154-30.162-8.523c-7.692-1.278-20.492-2.717-28.151-1.253
	c-7.432,1.421-21.664,6.755-27.9,11.03C57.606,223.671,53.06,225.174,53.814,227.681z"/>
<path fill="#290316" d="M77.259,126.697c-0.114-0.208-0.25-0.248-0.345-0.466c-0.225,1.625-0.46,2.803-0.809,4.409
	c-0.644,2.92-1.51,5.793-2.56,8.602c0.65,1.18,2.655-6.21,3.766-12.472C77.296,126.744,77.274,126.724,77.259,126.697z"/>
<path fill="#D2D5E3" d="M121.112,126.344c-1.654-0.374-3.308-0.757-4.987-1c-2.79-0.404-5.619-0.418-8.438-0.431
	c-3.49-0.016-6.98-0.032-10.47-0.048c-2.186-0.01-4.41-0.015-6.503,0.613c4.103-1.247,8.334-2.038,12.586-2.598
	c6.964-0.917,14.217-1.191,20.843,1.135c-0.07,0.829-0.1,1.662-0.088,2.495C123.098,126.778,122.081,126.563,121.112,126.344z"/>
<path fill="#D2D5E3" d="M105.039,159.548c0,2.482,0,4.963,0,7.445c0,0.526,0,0.978-0.603,1.128c-0.302-0.301-0.603-0.15-0.98-0.15
	c-2.639,0-5.278,0-7.842,0c-0.226,0-0.98,0.15-1.131-0.15c-0.151-0.301,0.377-0.752,0.603-0.978
	c0.754-0.978,1.433-1.955,2.262-3.008c0.452-0.526,0.754-0.902,0.528-1.504c-0.226-0.602-0.98-0.677-1.433-0.602
	c-0.452,0-1.131-0.451-1.131,0.075c0.075,0.301,0.905,0.15,1.357,0.226c0.829,0.075,1.056,0.978,0.603,1.654
	c-0.98,1.278-1.81,2.632-2.79,3.911c-0.302,0.376-1.131,0.376-1.584,0.376c-7.39,0-14.855,0-22.245,0
	c-0.679,0-0.905-0.226-0.829-0.902c0-2.858,0-5.64,0-8.498c0-0.978-0.283-1.159,0.697-1.008c0.679,0.075,12.79,0.465,13.092,0.465
	c0.679,0.075,2.423,0.167,2.725,0.167c1.206-0.075,1.508,0.526,2.564,1.053c0.226,0.15,0.905,0.226,1.206,0.376
	c2.488,0.827,4.524,0.677,7.163,0.376c0.452-0.075,0.528-0.226,0.754-0.602c-0.226-0.526-0.151-0.677,0.377-0.677
	c0.377,0,1.584,0.15,1.961,0.15c0.528-0.15,2.865-0.075,3.921-0.376C104.662,158.42,105.039,158.871,105.039,159.548z"/>
<path fill="#635F62" d="M34.988,153.682c0.226-0.376,0.151-0.602,0.075-0.902C34.913,153.08,34.913,153.306,34.988,153.682z
	 M34.913,151.652c0-0.075,0.075-0.226,0.075-0.301c0-0.075-0.075-0.15-0.075-0.15c-0.151,0.075-0.075,0.15-0.075,0.301
	C34.837,151.501,34.837,151.576,34.913,151.652z M34.611,148.418c0-0.075-0.075-0.075-0.075-0.15c0,0.075-0.075,0.075-0.075,0.15
	c0,0.075,0.075,0.075,0.075,0.15C34.536,148.493,34.536,148.418,34.611,148.418z"/>
<path fill="#D2D5E3" d="M139.198,134.731c-2.564-1.955-5.354-3.384-8.144-4.963c-0.452-0.226-0.528-0.376-1.131-0.677
	c-0.754-0.376-1.433-0.827-2.187-0.978c-1.282-0.376-2.187-1.053-3.544-1.354c-0.377-0.15-0.679-0.075-1.131-0.075
	c0.151-1.128,0.226-2.482,0.905-3.309c0.829,0.451,2.111,0.677,2.941,1.053c0.226,0.075,0.905,0.526,1.131,0.526
	c0.679-0.15,0.905,0.376,1.433,0.752c0.754,0.451,1.433,0.451,2.187,0.827c0.075,0.15,0.452,0.301,0.603,0.301l-0.075,0.15
	c0.075,0.075,0.603,0.075,0.679,0.15c1.206,0.752,1.885,0.902,3.092,1.579c0.226,0.15,0.603,0.376,0.98,0.376
	c0.528,0.301,1.433,0.902,1.81,1.278c1.961,1.203,3.167,1.88,4.751,3.158c1.357,1.128,2.715,2.482,3.77,3.911
	c0.317,0.313,0.98,0.226,1.357,0.15c0.226,0.15-0.302,0.978-0.377,1.203c-0.377,1.278,0,2.181,0.98,3.234
	c0.075,0.075,0.151,0.451,0.151,0.602c-1.131,0.15-2.639-0.376-3.77,0c-0.528-0.226-2.413-0.226-3.016-0.301
	c-1.659-0.15-2.784-2.009-2.03-3.964c0.226-0.677,0.163-0.633,0.691-1.159c0.302-0.301,0.522-0.266,0.22-0.642
	C140.986,136.1,139.801,135.258,139.198,134.731z"/>
<path fill="#D2D5E3" d="M150.509,136.235c1.282,0.15,2.639,1.278,2.639,2.557c0,0.677-0.075,1.354-0.226,2.03
	c-0.226,1.053-1.131,1.579-2.187,1.73c-0.377-0.301-0.905-0.075-1.282-0.451c-1.131-1.053-1.508-3.384-0.377-4.587
	C149.453,137.062,149.981,136.461,150.509,136.235z"/>
<path fill="#E2D8D6" d="M158.351,65.47c-0.075-0.226,0-0.376,0.075-0.526C158.652,65.169,158.577,65.32,158.351,65.47z"/>
<path fill="#E2D8D6" d="M158.728,62.763c-0.075-0.15,0-0.226,0.075-0.376C158.954,62.537,158.879,62.688,158.728,62.763z"/>
<path fill="#E2D8D6" d="M159.331,56.296c-0.075-0.15-0.075-0.226,0-0.376C159.482,56.07,159.482,56.145,159.331,56.296z"/>
<path fill="#E2D8D6" d="M158.2,66.749c-0.075-0.15-0.075-0.226,0-0.376C158.351,66.523,158.351,66.598,158.2,66.749z"/>
<path fill="#E2D8D6" d="M159.256,58.627c-0.075-0.15-0.075-0.226,0-0.376C159.482,58.401,159.482,58.477,159.256,58.627z"/>
<path fill="#E2D8D6" d="M123.815,146.763c0.075,0,0.151-0.075,0.226-0.075c0,0.15,0,0.301-0.151,0.376
	C123.815,146.989,123.815,146.839,123.815,146.763z"/>
<path fill="#D2D5E3" d="M85.509,156.841c-0.829-1.053-1.433-2.03-1.885-3.083c-1.131-2.406-1.577-4.837-2.331-7.394
	c-0.377-2.632-1.219-5.318-1.747-7.95c-0.377-1.955-0.866-3.999-1.017-5.954c-0.151-1.504-0.334-2.766-0.334-4.27
	c0.151-0.752,0.151-1.053,0.679-0.827c1.584,0.677,3.619,0.827,5.278,0.526c0.528-0.075,1.659-0.451,2.262-0.451
	c0.075,0.075-0.452,0.677-0.377,0.752l0,0c-0.452,1.278-0.528,2.406-0.302,3.76c0.302,1.88,0.603,3.911,0.905,5.715
	c0.377,2.256,0.98,4.437,1.508,6.693c0.226,1.053,0.302,2.03,0.98,2.858c0,0.978,0,1.429,0.377,1.88
	c0.528,0.752,0.452,1.278,0.452,2.181c0,0.15,0.151,0.376,0.226,0.526c-0.151,0.301,0.151,0.827,0.226,1.203
	c0.226,0.602,0.377,0.978,0.603,1.579c0.98,2.181,1.933,3.399,4.421,4.076c1.658-0.22,3.27,0.361,1.988,1.263
	c-1.659,0.376-3.242,0.376-4.751,0.301c-2.111-0.15-3.996-1.278-6.108-1.504c-0.075,0-0.151-0.15-0.226-0.15c0-0.075,0-0.15,0-0.226
	c0.151,0,0.377-0.075,0.302-0.226C86.263,157.593,86.037,157.442,85.509,156.841z"/>
<path fill="#E2D8D6" d="M28.051,139.469c0.075,0.075,0.151,0.15,0.226,0.15C28.202,139.619,28.126,139.544,28.051,139.469z"/>
<path fill="#5E6067" d="M28.654,142.327C28.579,142.327,28.579,142.327,28.654,142.327
	C28.579,142.327,28.579,142.327,28.654,142.327L28.654,142.327z"/>
<path fill="#D2C5B9" d="M118.537,78.781L118.537,78.781C118.461,78.781,118.537,78.781,118.537,78.781z"/>
<path fill="#FEFEFE" d="M132.185,126.985c-0.151,0-0.302,0-0.377-0.226C131.959,126.835,132.11,126.835,132.185,126.985z"/>
<path fill="#D2D5E3" d="M98.253,158.57c-0.603,0-1.206,0.451-1.81,0.376c-0.226,0-0.452,0-0.679-0.15
	c-2.111-1.354-1.885-5.039,0.226-6.317c-0.905-0.526-2.111,0.226-3.016-0.376c2.036,0.075,4.072-0.451,5.806,0.978
	c0.754,0.602,1.056,1.504,0.98,2.406c0,0.752-0.452,1.504-0.528,2.256C99.233,158.269,98.63,158.269,98.253,158.57z"/>
<path fill="#FEFEFE" d="M93.578,182.259c-0.377-0.226-0.302-0.602-0.377-0.827c-0.075-0.226-0.226-0.376-0.452-0.376
	c-0.302,0-0.226,0.301-0.226,0.526c0,0.301,0.075,0.752-0.452,0.677c-0.226,0-0.528,0.075-0.528-0.226
	c0-0.451,0.075-1.053,0.452-1.203c0.679-0.226,1.056-0.602,1.131-1.354c0-0.15,0.151-0.301,0.302-0.226
	c0.226,0.075,0.151,0.226,0.151,0.376C93.578,180.529,93.578,181.356,93.578,182.259z"/>
<path fill="#D2D5E3" d="M95.915,158.721c-1.357,0.15-3.393-1.805-3.921-2.557c-0.603-0.827-0.905-2.256-1.131-3.234
	c-0.151-0.451-0.377-0.752,0-0.752c0.98,0,2.338,0.075,3.318,0.15c0.226,0,1.584,0,1.282,0.451
	c-1.282,1.504-1.206,3.384-0.452,5.039L95.915,158.721z"/>
<path fill="#D2D5E3" d="M94.181,158.044c0.075,0.075,0.075,0.15,0.151,0.226c0,0-0.075,0-0.075,0.075
	C94.181,158.194,94.181,158.119,94.181,158.044L94.181,158.044z"/>
<path fill="#290316" d="M149.001,18.394C149.001,18.394,149.001,18.469,149.001,18.394
	C149.076,18.469,149.076,18.394,149.001,18.394z"/>
<path fill="#290316" d="M69.222,150.223C69.071,150.148,69.147,150.223,69.222,150.223L69.222,150.223z"/>
<path fill="#290316" d="M153.477,35.745c0.04,0.007,0.083,0.013,0.123,0.02C153.632,35.766,153.58,35.758,153.477,35.745z"/>
<path fill="#290316" d="M31.369,227.831c0,0.005,0,0.009,0,0.014c0.027-0.092,0.048-0.185,0.079-0.276
	C31.423,227.656,31.39,227.747,31.369,227.831z"/>
<path fill="#290316" d="M106.615,158.605c0,0,0.377-0.013,1.035-0.011c0.657,0.012,1.598,0.001,2.722,0.039
	c2.25,0.061,5.242,0.222,8.227,0.423c5.971,0.448,11.943,0.896,11.943,0.896s-1.947,0.043-4.206,0.119
	c-2.257,0.082-6.328-0.261-9.323-0.46c-2.995-0.209-4.459-0.096-6.689-0.41c-1.116-0.15-2.041-0.318-2.691-0.415
	C106.985,158.679,106.615,158.605,106.615,158.605z"/>
<path fill="#290316" d="M113.065,134.856c0,0,0.392-0.055,1.078-0.128c0.687-0.056,1.664-0.198,2.852-0.243
	c1.189-0.042,2.579-0.075,4.065,0.031c1.486,0.089,3.061,0.301,4.624,0.565c0.779,0.145,1.555,0.302,2.316,0.47
	c0.39,0.084,0.736,0.166,1.147,0.269c0.368,0.092,0.731,0.182,1.089,0.271c1.431,0.353,2.75,0.737,3.89,1.039
	c1.139,0.302,2.072,0.614,2.732,0.804c0.657,0.202,1.029,0.331,1.029,0.331s-0.395-0.044-1.081-0.144
	c-0.682-0.112-1.667-0.232-2.83-0.449c-1.162-0.217-2.527-0.437-3.974-0.732c-0.714-0.144-1.452-0.293-2.203-0.445
	c-0.754-0.155-1.522-0.296-2.29-0.43c-1.535-0.281-3.078-0.503-4.529-0.674c-1.451-0.167-2.814-0.3-3.984-0.345
	c-1.178-0.051-2.16-0.094-2.848-0.124C113.46,134.888,113.065,134.856,113.065,134.856z"/>
<g>
	<path fill="#290316" d="M63.625,157.25c-0.97-0.116-3.405,0.104-4.463,0.038c-2.363-0.146-4.806-0.298-6.992-1.091
		c-0.949-0.315-1.583-1.195-1.825-2.542c-0.506-2.825,0.829-7.494,3.554-9.678c6.238-4.998,12.012-3.184,17.595-1.429
		c3.005,0.944,6.109,1.921,9.289,1.844l0.28,0.857c-3.314,0.101-6.742-0.974-9.808-1.938c-5.631-1.77-10.95-3.443-16.855,1.291
		c-2.434,1.95-3.732,6.313-3.267,8.911c0.13,0.726,0.461,1.649,1.299,1.928c2.088,0.757,4.473,0.905,6.779,1.048
		c1.022,0.063,2.079,0.129,3.072,0.247L63.625,157.25z"/>
</g>
<g>
	<path fill="#290316" d="M134.563,148.938c-12.556-2.346-27.553-3.048-40.531-3.42c-1.804-0.051-3.597-0.103-5.376-0.159
		l0.025-0.799c1.778,0.056,3.571,0.107,5.373,0.159c13.01,0.372,26.462,0.757,39.078,3.113L134.563,148.938z"/>
</g>
<path fill="#290316" d="M45.706,146.322c-3.358,1.006-6.798,1.745-10.318,2.034c-0.879,0.077-1.763,0.096-2.647,0.108
	c-0.885,0.007-1.769-0.053-2.651-0.123c-0.881-0.092-1.757-0.225-2.624-0.404l-1.287-0.32l-1.258-0.412l0.056-0.258
	c0.454,0.107,0.905,0.225,1.356,0.353c-0.467-0.021-0.934-0.05-1.398-0.091l0.056-0.258c0.86,0.147,1.718,0.262,2.575,0.361
	l1.289,0.111l1.291,0.063c0.861,0.033,1.722,0.018,2.583,0.011c0.862-0.018,1.722-0.077,2.585-0.125
	c0.862-0.057,1.722-0.148,2.586-0.223l2.59-0.28C42.22,146.666,43.956,146.467,45.706,146.322z"/>
<g>
	<path fill="#290316" d="M86.621,158.363c-6.111-0.176-14.93-0.562-24.267-0.972c-17.038-0.746-36.349-1.592-43.188-1.308
		c-0.822,0.044-1.389-0.357-1.635-1.058c-0.933-2.659,3.146-10.041,6.368-12.502c3.517-2.686,8.267-4.082,14.119-4.147
		c3.231-0.049,6.495,0.312,9.648,0.651c1.666,0.18,3.389,0.364,5.083,0.49c8.401,0.618,15.072,0.346,20.994-0.861l0.14,0.686
		c-5.986,1.222-12.717,1.501-21.185,0.873c-1.706-0.126-3.435-0.312-5.106-0.491c-3.133-0.337-6.354-0.666-9.566-0.648
		c-5.698,0.064-10.308,1.412-13.702,4.005c-3.17,2.421-6.896,9.537-6.132,11.714c0.145,0.413,0.466,0.597,0.952,0.59
		c6.861-0.285,26.189,0.561,43.241,1.308c9.334,0.409,18.151,0.796,24.256,0.972L86.621,158.363z"/>
</g>
<g>
	<path fill="#290316" d="M56.86,229.877C56.859,229.877,56.859,229.877,56.86,229.877c-2.317-0.001-3.144-1.132-3.429-2.081
		c-0.85-2.826,2.771-4.617,4.317-5.382c8.376-4.141,21.176-9.284,28.415-10.668c2.165-0.414,4.877-0.624,8.063-0.624
		c8.071,0,16.863,1.17,20.229,1.876c8.504,1.783,23.119,6.079,30.265,8.554c5.787,2.004,6.746,3.28,6.702,3.979
		c-0.007,0.116-0.067,0.399-0.466,0.525c-1.446,0.459-3.059,0.682-4.93,0.682c-5.093,0-11.654-1.675-19.939-4.189
		c-6.768-2.054-21.527-4.07-29.797-4.07c-0.925,0-1.76,0.025-2.483,0.076c-3.769,0.261-10.313,2.447-15.093,4.044
		c-1.381,0.461-2.635,0.88-3.667,1.202c-3.103,0.969-12.324,4.609-12.417,4.646C62.519,228.498,59.439,229.877,56.86,229.877z
		 M94.226,211.922c-3.135,0-5.797,0.205-7.912,0.609c-7.169,1.371-17.826,5.522-26.147,9.635c-1.488,0.736-6.625,3.22-5.97,5.399
		c0.306,1.017,1.177,1.511,2.662,1.511c0,0,0,0,0.001,0c2.409,0,5.429-1.352,5.459-1.365c0.11-0.045,9.359-3.696,12.49-4.674
		c1.028-0.32,2.276-0.738,3.652-1.197c4.82-1.61,11.42-3.815,15.292-4.084c0.741-0.051,1.595-0.077,2.538-0.077
		c8.329,0,23.204,2.033,30.029,4.104c8.217,2.494,14.713,4.155,19.707,4.155c1.671,0,3.12-0.184,4.418-0.563
		c1.528-0.519-3.664-2.303-5.702-3.141c-6.892-2.833-21.788-7.014-30.418-8.448C110.95,213.227,102.237,211.922,94.226,211.922z"/>
</g>
<path fill="#290316" d="M161.744,12.528c-0.151-2.331-0.377-5.189-1.96-6.994c-1.961-2.181-4.75-2.557-7.465-3.008
	c-7.767-1.128-15.533-1.955-23.376-2.331c-7.767-0.376-15.609-0.226-23.376,0.602c-2.941,0.301-6.786,0.301-9.501,1.654
	c-1.583,0.827-2.488,2.03-3.016,3.459c0-0.075-0.452,1.278-0.603,2.03c-0.075,0.301-0.151,0.677-0.226,1.053v0.075
	c-0.226,1.504-0.226,3.083-0.075,4.663c0.075,0.602,0.075,1.805,0.528,2.557c0,0-0.075,0-0.075,0.075
	c-3.242,4.963-4.524,11.431-2.111,16.996c-2.506,1.827-3.355,5.84-3.355,9.34c0,0.214,0.013,0.628,0.035,1.075
	c-0.003,0.149-0.012,0.298-0.013,0.446c-0.014,0.982-0.001,1.964,0.041,2.946l0.08,1.471l0.05,0.734l0.024,0.364l0.009,0.176
	l0.003,0.086c-0.008,0.005,0.015-0.069,0.057-0.072l-0.057,0.097c-0.469,1.534-0.792,3.101-1.075,4.672
	c-0.276,1.573-0.491,3.155-0.655,4.743c-0.162,1.589-0.274,3.184-0.297,4.789c-0.008,0.802,0.001,1.607,0.059,2.415
	c0.046,0.776,0.161,1.556,0.359,2.34c-0.351,5.953-0.903,11.911-1.712,17.821c-0.41,2.962-0.842,5.921-1.412,8.853
	c-0.263,1.471-0.6,2.923-0.923,4.38c-0.373,1.441-0.722,2.892-1.191,4.301c-0.381,1.418-1.081,2.808-1.164,4.448
	c-0.054,1.674,0.716,3.056,0.054,4.281c-0.278,0.631-0.731,1.234-1.093,1.939c-0.364,0.699-0.566,1.512-0.659,2.268
	c-0.123,1.111-0.14,2.189-0.188,3.261c-0.877,1.177-1.353,2.533-1.456,3.969c-0.075,1.429,0.905,2.256,2.111,2.782
	c-0.453,3.534,0.603,7.37,1.282,10.829c0.453,2.707,1.056,5.339,1.734,7.971c0.157,1.001,0.754,3.158,1.131,4.362
	c0.905,2.858,1.961,5.715,4.223,7.671c0.28,0.246,0.191,0.246,0.679,0.526c3.016,2.106,9.953,1.955,10.557,1.504
	c0.603-0.15,0.603-0.752,0.302-1.128c2.262,0.075,4.524-0.075,6.711-0.075v8.723H94.709c0.302-0.451,0.679-0.902,0.98-1.278
	c0.679-0.902,1.584-1.955,2.111-2.933c0.829-1.429-0.302-1.955-2.488-1.955c-0.302,0-0.377,0.602,0,0.602
	c2.488,0,2.036,0.827,1.433,1.73c-0.377,0.526-0.754,1.128-1.131,1.654c-0.528,0.752-1.056,1.429-1.659,2.181h-23.58v-10.432
	c-0.216-0.207-1.043,0.23-1.229-0.013v11.122h10.708v29.707c0.174-0.005,0.652-4.484,0.828-4.487l0.068-25.22h12.752
	c-0.151,0.226-0.302,0.451-0.528,0.677c-1.734,2.331-3.469,4.663-5.203,6.994c-0.83,1.128-1.734,2.331-2.564,3.459
	c-0.302,0.301-0.528,0.827-0.226,1.278c0.226,0.376,0.679,0.451,1.056,0.451c1.131,0,2.111,0.075,3.167,0
	c0.151,1.579,1.508,2.858,3.167,2.858h2.338v14.848c0.204,0.005,0.404,0.007,0.603,0.008v-14.856h6.108
	c1.81,0,3.242-1.429,3.242-3.234c0-1.805-1.433-3.234-3.242-3.234h-6.108v-9.25h10.029v-9.4h0.905
	c1.088,0.042,2.175,0.087,3.263,0.142c0.612-0.272,1.328-0.423,2.15-0.409c-4.389-0.479-9.033-0.542-13.33-0.034
	c0.98-0.451,1.508-1.504,1.659-2.782c0.226-2.03-0.905-3.534-2.941-3.76h-0.679c-2.036-0.075-3.921-0.301-5.806-0.301
	c-0.075-0.376-0.151-0.677-0.302-1.053c-0.377-1.279-0.679-2.557-0.98-3.835c-0.128-0.577-1.207-4.963-1.734-7.295
	c-0.377-1.88-0.754-3.76-1.056-5.64c-0.377-2.331-0.98-4.587,0.528-6.618c0.076,0,0.151-0.075,0.226-0.075
	c0.853-0.348,1.647-0.755,2.442-1.151l-0.07,0.061c11.856-2.056,25.715-0.782,33.016,0.781c0.78,0.25,1.473,0.363,2.255,0.549
	c0.863,0.242,1.555,0.483,2.038,0.711l0.021-0.044c0.858,0.34,3.165,1.232,3.581,1.425c2.488,1.203,4.826,2.632,7.164,4.136
	c1.357,0.902,2.564,2.031,3.846,3.008c-2.187,1.579-1.508,5.415,1.131,5.866c0,0,1.282,0.075,2.865,0.15
	c-1.131,3.309-2.488,5.941-4.147,8.723c-1.433-1.354-3.393-2.181-5.505-2.858c-1.074-0.335-2.104-0.73-3.265-0.903
	c-2.738-0.409-4.169,0.016-1.365,0.385c0.264,0.035,1.949,0.501,2.211,0.564c3.509,0.843,7.773,1.91,8.829,5.67
	c1.433,5.264-7.239,5.189-10.331,5.189c-2.521,0-5.367,0.038-8.713-0.115c0.002,0.199-0.307,0.389-0.307,0.587
	c2.605,0.102,4.16,0.048,5.475-0.021c2.564-0.075,5.128,0.15,7.767-0.075c2.564-0.226,7.541-1.504,6.786-5.114
	c-0.226-1.203-0.754-2.106-1.357-2.933c1.659-2.782,3.393-5.866,4.072-9.099c1.583,0.075,3.469,0.075,4.751,0
	c0.302,0,0.528,0,0.83-0.075h0.075c0.075,0,0.075,0,0.151-0.075c0.98-0.376,1.81-1.504,2.036-2.557
	c0.452-1.654-0.528-4.061-2.338-4.362c-0.905-1.354-1.734-2.632-2.715-3.835c0.98-3.986,1.81-7.971,2.488-12.032
	c0.603-3.61,2.094-13.099,2.094-13.099c-0.006-0.029,0.011-0.238,0.042-0.56c0.171-0.731,0.351-1.549,0.518-2.45
	c0.358-1.875,0.725-4.039,1.064-6.391c0.338-2.342,0.654-4.846,0.977-7.349c0.312-2.504,0.612-5.01,0.871-7.363
	c0.162-1.479,0.302-2.885,0.433-4.203c0.094-0.64,0.234-2.377,0.347-3.168C159.712,54.242,162.936,34.295,161.744,12.528z
	 M94.709,177.596h-2.338c-1.734,0-3.092,1.429-3.167,3.083h-2.639c-2.036,0,0-1.955,0.905-3.234c1.81-2.557,3.77-5.039,5.655-7.52
	c0.377-0.526,0.754-1.053,1.131-1.579h0.453V177.596z M99.535,154.584c0.603,1.955-0.754,4.362-3.016,3.911
	c-1.056-0.226-1.659-0.978-2.036-2.256c-0.377-1.278,0.151-2.707,1.282-3.384C97.273,151.952,99.082,153.08,99.535,154.584z
	 M95.388,152.554c-2.036,1.203-1.961,5.039,0.302,6.016h-0.226c-1.282-0.226-2.338-1.279-3.016-2.256
	c-0.829-1.128-1.282-2.482-1.659-3.911C92.296,152.479,93.88,152.554,95.388,152.554z M85.962,133.378
	c0.603,4.061,1.508,8.047,2.413,11.957c0.829,3.309,1.508,6.919,2.941,10.002c0.528,1.203,1.357,2.106,2.413,2.858
	c0.453,0.376,1.009,0.283,1.537,0.509c0.226,0.075,1.714,0.169,1.864,0.169c0.98,0,0.746,0.901,0.143,0.977
	c-2.564,0.376-6.786,0.301-9.878-1.579c-0.151-0.075-0.151-0.075-0.226-0.15c-0.302-0.226-0.528-0.376-0.829-0.602
	c-2.488-2.256-3.393-6.167-4.223-9.25c-0.98-3.384-1.734-6.843-2.338-10.227c-0.679-3.459-1.508-6.994-1.357-10.604
	c0.603,0.226,1.206,0.376,1.734,0.451c2.111,0.451,4.147,0.376,6.183-0.301C84.982,129.016,85.66,131.573,85.962,133.378z
	 M139.952,134.957c-1.659-1.278-3.469-2.482-5.354-3.61c-2.277-1.476-4.884-2.871-7.634-3.856
	c-4.887-2.127-21.294-4.416-35.122-2.323c0.052-0.019,0.1-0.044,0.152-0.063c1.168-0.405,2.406-0.733,3.642-0.955
	c0.003-0.009,0.008-0.018,0.011-0.027c0.846-0.16,1.832-0.327,2.954-0.516c0.89-0.133,1.854-0.277,2.874-0.43
	c1.026-0.13,2.078-0.224,3.207-0.287c2.239-0.125,4.639-0.189,7.038-0.207c2.402,0.004,4.793-0.031,7.009,0.239
	c2.217,0.229,4.271,0.66,5.996,1.152c0.742,0.205,1.414,0.409,2.034,0.605c3.435,1.443,6.842,2.922,10.103,4.789
	c1.961,1.128,3.846,2.331,5.655,3.685c1.734,1.278,3.016,3.008,4.6,4.437C144.853,140.672,141.686,136.235,139.952,134.957z
	 M143.345,142.251c-1.433-0.15-2.413-0.827-2.639-2.482c-0.151-1.128,0.226-2.181,1.131-2.707c0.679,0.526,1.357,0.978,2.111,1.429
	c1.508,0.827,2.639,0.376,3.469-0.752c0.226,0.15,0.754,0.226,1.131,0.075c0,0.075-0.075,0.15-0.075,0.226
	c-0.603,1.429-0.98,3.083,0.754,4.286C147.342,142.327,145.004,142.477,143.345,142.251z M152.545,137.589
	c0.452,0.752,0.603,1.654,0.377,2.482c-0.377,1.654-1.885,2.632-3.393,1.805c-1.357-0.677-0.98-2.331-0.679-3.61
	c0.226-0.526,0.452-0.978,0.905-1.429C150.81,135.784,151.941,136.611,152.545,137.589z M150.508,135.859
	c-0.603,0.15-0.98,0.451-1.357,0.978c-0.226,0.301-0.452,0.526-0.679,0.677c-0.151,0.075-0.603,0.075-0.754,0
	c-1.583-1.354-2.79-3.083-4.449-4.362c-1.961-1.504-4.072-2.782-6.183-4.061c-3.807-2.293-7.958-4.098-12.124-5.63
	c-0.594-0.151-1.123-0.271-1.604-0.37c-1.372-0.396-2.895-0.749-4.528-0.999c-2.264-0.34-4.705-0.39-7.116-0.396
	c-2.418,0.007-4.836,0.085-7.101,0.288c-1.122,0.098-2.245,0.222-3.262,0.427c-1.017,0.217-1.978,0.423-2.865,0.613
	c-1.773,0.383-4.859,1.019-5.862,1.352c-0.249,0.085-0.369,0.153-0.408,0.207c-0.075,0.025-0.146,0.047-0.222,0.072
	c-2.187,0.677-3.997,1.955-6.108,2.707c-2.488,0.902-5.58,0.526-7.918-0.526c-2.791-1.202-1.313-4.528,0.169-6.629
	c-0.035,0.002,0.157-0.189,0.335-0.368c0.577-0.511,1.422-0.941,2.384-1.448c0.965-0.494,2.067-1.031,3.3-1.533
	c2.464-1.005,5.491-1.789,8.795-2.003c1.642-0.097,3.39-0.065,5.146-0.076c1.758,0.007,3.54,0.03,5.32,0.091
	c3.56,0.122,7.115,0.499,10.434,0.907c3.318,0.401,6.359,1.101,8.922,1.872c1.505,0.438,2.848,0.874,4.003,1.265
	c0.002,0.018,0.004,0.035,0.007,0.053c4.492,1.555,8.713,3.521,12.716,5.989C144.702,128.189,147.568,131.422,150.508,135.859z
	 M156.407,77.628c0.001,0,0.001,0.002,0.002,0.002c-0.232,1.5-0.49,3.148-0.741,4.886c-0.338,2.342-0.673,4.843-0.997,7.346
	c-0.314,2.504-0.633,5.008-0.891,7.36c-0.136,1.174-0.267,2.309-0.392,3.385c-0.046,0.428-0.091,0.836-0.136,1.241
	c-0.097,0.496-0.198,0.998-0.304,1.489c-0.146,0.297-0.96,4.363-1.174,5.739c-0.449,4.208-0.971,7.121-1.493,10.69
	c-0.603,3.911-1.433,7.821-2.337,11.656c-0.377-0.451-0.754-0.902-1.206-1.354c-1.734-1.88-3.77-3.459-6.032-4.888
	c-3.092-1.955-6.409-3.685-9.878-5.114c-0.606-0.272-1.132-0.491-1.615-0.68c-0.009-0.004-0.016-0.007-0.026-0.011
	c-1.452-0.59-3.725-1.297-6.277-2.163c-2.554-0.851-5.619-1.65-8.956-2.152c-3.332-0.498-6.904-0.885-10.499-1.062
	c-1.796-0.098-3.596-0.11-5.361-0.087c-1.767,0.033-3.491,0.018-5.199,0.141c-3.406,0.228-6.486,1.204-8.947,2.315
	c-1.237,0.553-2.325,1.148-3.263,1.719c-0.927,0.57-1.762,1.06-2.335,1.624c-0.033,0.031-0.058,0.061-0.09,0.092
	c-0.035,0.024-0.079,0.057-0.118,0.084c0.049-0.854,0.094-1.702,0.203-2.517c0.111-0.726,0.287-1.388,0.628-2.017
	c0.333-0.624,0.805-1.219,1.154-1.954c0.383-0.742,0.442-1.656,0.317-2.422c-0.111-0.777-0.28-1.472-0.236-2.151
	c0.067-1.388,0.738-2.754,1.154-4.215c0.488-1.434,0.851-2.899,1.24-4.357c0.336-1.469,0.688-2.935,0.963-4.415
	c0.587-2.953,1.074-5.923,1.445-8.906c0.761-5.874,1.267-11.766,1.579-17.682c0.22-0.007,0.894-0.028,1.94-0.061
	c0.644-0.02,1.427-0.045,2.324-0.073c0.896-0.034,1.911-0.091,3.016-0.108c12.38-0.197,34.947,0.809,39.144,1.048
	c5.429,0.301,10.858,0.752,16.288,0.677c0.151,0,0.151-0.15,0-0.226c-5.429-0.526-10.858-0.602-16.288-0.902
	c-5.202-0.288-10.403-0.844-15.605-1.09c0.011,0.018-18.755-0.606-20.016-0.544c-1.263,0.065-2.453,0.109-3.554,0.134
	c-4.419,0.088-7.365,0.147-7.365,0.147l0.001,0.049c-0.12-0.561-0.213-1.138-0.263-1.728c-0.073-0.775-0.098-1.561-0.107-2.347
	c-0.011-1.574,0.066-3.154,0.192-4.729c0.24-2.864,0.638-5.727,1.301-8.518c0.084-0.005,4.9-0.277,10.025-0.42
	c7.074,0.365,19.386,0.581,26.116,0.996c7.616,0.451,15.232,0.978,22.848,1.73c0.076,0,0.076-0.15,0-0.15
	c-7.616-0.827-15.232-1.579-22.848-2.106c-6.738-0.407-13.536-0.923-20.286-0.855c-1.508-0.06-3.163-0.107-4.822-0.141
	c-4.847-0.102-9.699-0.066-10.828-0.055l-0.006-0.088l-0.016-0.19l-0.037-0.367l-0.075-0.73l-0.13-1.459
	c-0.075-0.974,0.043-3.107,0.023-4.083c-0.003-0.15-0.007-0.283-0.01-0.42c0.054-0.96,0.104-1.865,0.139-2.18
	c0.214-1.925,1.341-5.174,3.247-6.802c0.377-0.301,2.187-0.526,3.092-0.602c9.652-0.376,16.363-0.526,26.015-0.15
	c10.029,0.376,19.907,1.128,29.785,2.482c0.195,0,3.01,0.278,3.647,0.356c-9.643-1.644-22.991-2.914-32.753-3.364
	c-9.953-0.376-20.133-0.526-30.011,0.677h-0.075c-1.885-5.715-0.829-11.205,2.187-16.394c0.226,0.301,0.528,0.526,0.905,0.526
	c6.409,0,12.819-0.451,19.228-0.451c12.97,0,25.789,0.677,38.683,1.805c0.151,0,0.151-0.15,0-0.15
	c-11.085-1.278-22.32-1.88-33.48-2.03c-5.731-0.075-11.462-0.075-17.117,0.226c-1.207,0.075-3.619,0.075-5.128,0.15
	c-1.734,0.075-2.865,0.602-3.242-1.579c-0.377-2.106-0.528-4.061-0.151-6.091c0.829-4.362,1.961-5.791,5.429-6.693
	c3.393-0.827,6.937-0.827,10.331-1.128c6.56-0.526,13.121-0.602,19.681-0.301c6.56,0.301,13.121,0.902,19.681,1.805
	c3.092,0.376,6.485,0.602,9.35,1.805c3.242,1.354,3.921,4.738,4.072,8.122C161.894,34.173,159.195,56.284,156.407,77.628z"/>
</svg>