<?xml version="1.0" encoding="UTF-8"?>
<svg xmlns="http://www.w3.org/2000/svg" xmlns:xlink="http://www.w3.org/1999/xlink" width="80pt" height="80pt" viewBox="0 0 80 80" version="1.1">
<g id="surface6350867">
<path style=" stroke:none;fill-rule:nonzero;fill:rgb(92.54902%,94.117647%,94.509804%);fill-opacity:1;" d="M 72 6 L 70.375 9.292969 L 66.742188 9.820312 L 69.371094 12.382812 L 68.75 16 L 72 14.292969 L 75.25 16 L 74.628906 12.382812 L 77.257812 9.820312 L 73.625 9.292969 Z M 20 6 L 18.375 9.292969 L 14.742188 9.820312 L 17.371094 12.382812 L 16.75 16 L 20 14.292969 L 23.25 16 L 22.628906 12.382812 L 25.257812 9.820312 L 21.625 9.292969 Z M 20 6 "/>
<path style=" stroke:none;fill-rule:nonzero;fill:rgb(87.450981%,94.117647%,99.607843%);fill-opacity:1;" d="M 15 77 L 15 22.78125 L 46 15.03125 L 77 22.78125 L 77 77 Z M 15 77 "/>
<path style=" stroke:none;fill-rule:nonzero;fill:rgb(92.54902%,94.117647%,94.509804%);fill-opacity:1;" d="M 46 16.0625 L 76 23.5625 L 76 76 L 16 76 L 16 23.5625 L 46 16.0625 M 46 14 L 14 22 L 14 78 L 78 78 L 78 22 Z M 36 0 L 37.949219 3.949219 L 42.308594 4.585938 L 39.152344 7.65625 L 39.898438 12 L 36 9.949219 L 32.101562 12 L 32.847656 7.65625 L 29.691406 4.585938 L 34.050781 3.949219 Z M 56 0 L 57.949219 3.949219 L 62.308594 4.585938 L 59.152344 7.65625 L 59.898438 12 L 56 9.949219 L 52.101562 12 L 52.847656 7.65625 L 49.691406 4.585938 L 54.050781 3.949219 Z M 56 0 "/>
<path style=" stroke:none;fill-rule:nonzero;fill:rgb(59.607846%,80.000001%,99.215686%);fill-opacity:1;" d="M 40 48 L 52 48 L 52 76 L 40 76 Z M 58 48 L 70 48 L 70 60 L 58 60 Z M 58 30 L 70 30 L 70 42 L 58 42 Z M 22 30 L 34 30 L 34 42 L 22 42 Z M 40 30 L 52 30 L 52 42 L 40 42 Z M 40 30 "/>
<path style=" stroke:none;fill-rule:nonzero;fill:rgb(87.450981%,94.117647%,99.607843%);fill-opacity:1;" d="M 14 44 L 20 44 L 20 64 L 14 64 Z M 14 44 "/>
<path style=" stroke:none;fill-rule:nonzero;fill:rgb(59.607846%,80.000001%,99.215686%);fill-opacity:1;" d="M 21 57 L 3 57 L 3 51 L 21 51 L 21 44.414062 L 30.585938 54 L 21 63.585938 Z M 21 57 "/>
<path style=" stroke:none;fill-rule:nonzero;fill:rgb(92.54902%,94.117647%,94.509804%);fill-opacity:1;" d="M 22 46.828125 L 29.171875 54 L 22 61.171875 L 22 56 L 4 56 L 4 52 L 22 52 L 22 46.828125 M 20 42 L 20 50 L 2 50 L 2 58 L 20 58 L 20 66 L 32 54 Z M 20 42 "/>
<path style=" stroke:none;fill-rule:nonzero;fill:rgb(92.54902%,94.117647%,94.509804%);fill-opacity:1;" d="M 15 40 C 14.449219 40 14 40.449219 14 41 L 14 45 C 14 45.550781 14.449219 46 15 46 C 15.550781 46 16 45.550781 16 45 L 16 41 C 16 40.449219 15.550781 40 15 40 Z M 15 70 C 15.550781 70 16 69.550781 16 69 L 16 63 C 16 62.449219 15.550781 62 15 62 C 14.449219 62 14 62.449219 14 63 L 14 69 C 14 69.550781 14.449219 70 15 70 Z M 15 70 "/>
</g>
</svg>
