<svg xmlns="http://www.w3.org/2000/svg"  viewBox="0 0 64 64" width="128px" height="128px"><path fill="#c2cde7" d="M54 47L13 47 10 19 60 19 54 47z"/><path fill="#f9e3ae" d="M10 15H62V19H10z"/><path fill="#f283a5" d="M3 3A2 2 0 1 0 3 7A2 2 0 1 0 3 3Z"/><path fill="#ed7899" d="M25 51A4 4 0 1 0 25 59A4 4 0 1 0 25 51Z"/><path fill="#f283a5" d="M25 53A2 2 0 1 0 25 57A2 2 0 1 0 25 53Z"/><path fill="#ced8ed" d="M22 47L12 47 10 19 21 19 22 47z"/><path fill="#b5c4e0" d="M10,19v2a3,3,0,0,0,3,3H44L42,47H54l6-28Z"/><path fill="#72caaf" d="M51 39A12 12 0 1 0 51 63A12 12 0 1 0 51 39Z"/><path fill="#8d6c9f" d="M14 26a1 1 0 0 0 1-1V23a1 1 0 0 0-2 0v2A1 1 0 0 0 14 26zM19 26a1 1 0 0 0 1-1V23a1 1 0 0 0-2 0v2A1 1 0 0 0 19 26zM24 26a1 1 0 0 0 1-1V23a1 1 0 0 0-2 0v2A1 1 0 0 0 24 26zM29 26a1 1 0 0 0 1-1V23a1 1 0 0 0-2 0v2A1 1 0 0 0 29 26zM34 26a1 1 0 0 0 1-1V23a1 1 0 0 0-2 0v2A1 1 0 0 0 34 26zM39 26a1 1 0 0 0 1-1V23a1 1 0 0 0-2 0v2A1 1 0 0 0 39 26zM44 26a1 1 0 0 0 1-1V23a1 1 0 0 0-2 0v2A1 1 0 0 0 44 26zM49 26a1 1 0 0 0 1-1V23a1 1 0 0 0-2 0v2A1 1 0 0 0 49 26zM54 26a1 1 0 0 0 1-1V23a1 1 0 0 0-2 0v2A1 1 0 0 0 54 26z"/><path fill="#8d6c9f" d="M56.67,39.32,60.81,20H61a3,3,0,0,0,0-6H10.72l-.28-3.55a7,7,0,0,0-4.49-6,3,3,0,1,0-.37,2,5,5,0,0,1,2.86,4.1l2.79,35.26a11.07,11.07,0,0,0,8.85,9.92A5,5,0,0,0,29.9,56H39A13,13,0,1,0,56.67,39.32ZM3,6.25A1.25,1.25,0,1,1,4.25,5,1.25,1.25,0,0,1,3,6.25ZM61,16a1,1,0,0,1,0,2H11l-.16-2ZM11.19,20H58.76l-4,18.57A12.95,12.95,0,0,0,41.64,42H15a1,1,0,0,0,0,2H40.06A13,13,0,0,0,39,46H13.26c0-.1,0-.19,0-.29ZM25,58.43A3.43,3.43,0,1,1,28.43,55,3.44,3.44,0,0,1,25,58.43ZM29.9,54a5,5,0,0,0-9.72-.25A9.08,9.08,0,0,1,13.72,48H38.36a12.56,12.56,0,0,0,0,6ZM51,62A11,11,0,1,1,62,51,11,11,0,0,1,51,62Z"/><path fill="#faefde" d="M57,50H52V45a1,1,0,0,0-2,0v5H45a1,1,0,0,0,0,2h5v5a1,1,0,0,0,2,0V52h5a1,1,0,0,0,0-2Z"/></svg>