<?xml version="1.0" encoding="UTF-8"?><svg version="1.1" id="chatbot" xmlns="http://www.w3.org/2000/svg" xmlns:xlink="http://www.w3.org/1999/xlink" x="0px" y="0px" viewBox="0 0 293 100" style="enable-background:new 0 0 293 100;" xml:space="preserve" width="293px" height="100px">
<g>
	
		<linearGradient id="SVGID_1_" gradientUnits="userSpaceOnUse" x1="146.5" y1="-195.3055" x2="146.5" y2="-294.407" gradientTransform="matrix(1 0 0 -1 0 -196)">
		<stop offset="0" style="stop-color:#DDDDDD"/>
		<stop offset="0.5567" style="stop-color:#D9D9D9"/>
		<stop offset="1" style="stop-color:#D0D0D0"/>
	</linearGradient>
	<path style="fill:url(#SVGID_1_);" d="M285,100H8c-4.418,0-8-3.582-8-8V8c0-4.418,3.582-8,8-8h277c4.418,0,8,3.582,8,8v84
		C293,96.418,289.418,100,285,100z"/>
	<path style="opacity:0.15;enable-background:new    ;" d="M215,58c0,2.209-1.791,4-4,4h-20c-2.209,0-4-1.791-4-4V46
		c0-2.209,1.791-4,4-4h20c2.209,0,4,1.791,4,4V58z"/>
	
		<linearGradient id="SVGID_2_" gradientUnits="userSpaceOnUse" x1="201" y1="-235.5" x2="201" y2="-256.0548" gradientTransform="matrix(1 0 0 -1 0 -196)">
		<stop offset="0" style="stop-color:#FFFFFF"/>
		<stop offset="0.5172" style="stop-color:#FBFBFB"/>
		<stop offset="1" style="stop-color:#F0F0F0"/>
	</linearGradient>
	<path style="fill:url(#SVGID_2_);" d="M215,56c0,2.209-1.791,4-4,4h-20c-2.209,0-4-1.791-4-4V44c0-2.209,1.791-4,4-4h20
		c2.209,0,4,1.791,4,4V56z"/>
	<path style="opacity:0.15;enable-background:new    ;" d="M219,92h-28c-2.209,0-4-1.791-4-4V76c0-2.209,1.791-4,4-4h28
		c2.209,0,4,1.791,4,4v12C223,90.209,221.209,92,219,92z"/>
	
		<linearGradient id="SVGID_3_" gradientUnits="userSpaceOnUse" x1="205" y1="-265.6667" x2="205" y2="-285.6917" gradientTransform="matrix(1 0 0 -1 0 -196)">
		<stop offset="0" style="stop-color:#FFFFFF"/>
		<stop offset="0.5172" style="stop-color:#FBFBFB"/>
		<stop offset="1" style="stop-color:#F0F0F0"/>
	</linearGradient>
	<path style="fill:url(#SVGID_3_);" d="M219,90h-28c-2.209,0-4-1.791-4-4V74c0-2.209,1.791-4,4-4h28c2.209,0,4,1.791,4,4v12
		C223,88.209,221.209,90,219,90z"/>
	<path style="opacity:0.15;enable-background:new    ;" d="M54,62H14c-2.209,0-4-1.791-4-4V46c0-2.209,1.791-4,4-4h40
		c2.209,0,4,1.791,4,4v12C58,60.209,56.209,62,54,62z"/>
	
		<linearGradient id="SVGID_4_" gradientUnits="userSpaceOnUse" x1="34" y1="-235.6667" x2="34" y2="-255.6917" gradientTransform="matrix(1 0 0 -1 0 -196)">
		<stop offset="0" style="stop-color:#FFFFFF"/>
		<stop offset="0.5172" style="stop-color:#FBFBFB"/>
		<stop offset="1" style="stop-color:#F0F0F0"/>
	</linearGradient>
	<path style="fill:url(#SVGID_4_);" d="M54,60H14c-2.209,0-4-1.791-4-4V44c0-2.209,1.791-4,4-4h40c2.209,0,4,1.791,4,4v12
		C58,58.209,56.209,60,54,60z"/>
	<path style="opacity:0.15;enable-background:new    ;" d="M253,58c0,2.209-1.791,4-4,4h-22c-2.209,0-4-1.791-4-4V46
		c0-2.209,1.791-4,4-4h22c2.209,0,4,1.791,4,4V58z"/>
	<path style="opacity:0.15;enable-background:new    ;" d="M219,32h-28c-2.209,0-4-1.791-4-4V16c0-2.209,1.791-4,4-4h28
		c2.209,0,4,1.791,4,4v12C223,30.209,221.209,32,219,32z"/>
	<path style="opacity:0.15;enable-background:new    ;" d="M249,32h-12c-2.209,0-4-1.791-4-4V16c0-2.209,1.791-4,4-4h12
		c2.209,0,4,1.791,4,4v12C253,30.209,251.209,32,249,32z"/>
	<path style="opacity:0.15;enable-background:new    ;" d="M279,32h-12c-2.209,0-4-1.791-4-4V16c0-2.209,1.791-4,4-4h12
		c2.209,0,4,1.791,4,4v12C283,30.209,281.209,32,279,32z"/>
	<path style="opacity:0.15;enable-background:new    ;" d="M279,42h-12c-2.209,0-4,1.791-4,4v24c0,1.105-0.895,2-2,2h-24
		c-2.209,0-4,1.791-4,4v12c0,2.209,1.791,4,4,4h42c2.209,0,4-1.791,4-4V46C283,43.791,281.209,42,279,42z"/>
	
		<linearGradient id="SVGID_5_" gradientUnits="userSpaceOnUse" x1="238" y1="-235.5" x2="238" y2="-256.0548" gradientTransform="matrix(1 0 0 -1 0 -196)">
		<stop offset="0" style="stop-color:#FFFFFF"/>
		<stop offset="0.5172" style="stop-color:#FBFBFB"/>
		<stop offset="1" style="stop-color:#F0F0F0"/>
	</linearGradient>
	<path style="fill:url(#SVGID_5_);" d="M253,56c0,2.209-1.791,4-4,4h-22c-2.209,0-4-1.791-4-4V44c0-2.209,1.791-4,4-4h22
		c2.209,0,4,1.791,4,4V56z"/>
	
		<linearGradient id="SVGID_6_" gradientUnits="userSpaceOnUse" x1="205" y1="-205.6667" x2="205" y2="-225.6917" gradientTransform="matrix(1 0 0 -1 0 -196)">
		<stop offset="0" style="stop-color:#FFFFFF"/>
		<stop offset="0.5172" style="stop-color:#FBFBFB"/>
		<stop offset="1" style="stop-color:#F0F0F0"/>
	</linearGradient>
	<path style="fill:url(#SVGID_6_);" d="M219,30h-28c-2.209,0-4-1.791-4-4V14c0-2.209,1.791-4,4-4h28c2.209,0,4,1.791,4,4v12
		C223,28.209,221.209,30,219,30z"/>
	
		<linearGradient id="SVGID_7_" gradientUnits="userSpaceOnUse" x1="243" y1="-205.6667" x2="243" y2="-225.6917" gradientTransform="matrix(1 0 0 -1 0 -196)">
		<stop offset="0" style="stop-color:#FFFFFF"/>
		<stop offset="0.5172" style="stop-color:#FBFBFB"/>
		<stop offset="1" style="stop-color:#F0F0F0"/>
	</linearGradient>
	<path style="fill:url(#SVGID_7_);" d="M249,30h-12c-2.209,0-4-1.791-4-4V14c0-2.209,1.791-4,4-4h12c2.209,0,4,1.791,4,4v12
		C253,28.209,251.209,30,249,30z"/>
	
		<linearGradient id="SVGID_8_" gradientUnits="userSpaceOnUse" x1="273" y1="-205.6667" x2="273" y2="-225.6917" gradientTransform="matrix(1 0 0 -1 0 -196)">
		<stop offset="0" style="stop-color:#FFFFFF"/>
		<stop offset="0.5172" style="stop-color:#FBFBFB"/>
		<stop offset="1" style="stop-color:#F0F0F0"/>
	</linearGradient>
	<path style="fill:url(#SVGID_8_);" d="M279,30h-12c-2.209,0-4-1.791-4-4V14c0-2.209,1.791-4,4-4h12c2.209,0,4,1.791,4,4v12
		C283,28.209,281.209,30,279,30z"/>
	<path style="opacity:0.15;enable-background:new    ;" d="M142,32h-12c-2.209,0-4-1.791-4-4V16c0-2.209,1.791-4,4-4h12
		c2.209,0,4,1.791,4,4v12C146,30.209,144.209,32,142,32z"/>
	
		<linearGradient id="SVGID_9_" gradientUnits="userSpaceOnUse" x1="136" y1="-205.6667" x2="136" y2="-225.6917" gradientTransform="matrix(1 0 0 -1 0 -196)">
		<stop offset="0" style="stop-color:#FFFFFF"/>
		<stop offset="0.5172" style="stop-color:#FBFBFB"/>
		<stop offset="1" style="stop-color:#F0F0F0"/>
	</linearGradient>
	<path style="fill:url(#SVGID_9_);" d="M142,30h-12c-2.209,0-4-1.791-4-4V14c0-2.209,1.791-4,4-4h12c2.209,0,4,1.791,4,4v12
		C146,28.209,144.209,30,142,30z"/>
	<path style="opacity:0.15;enable-background:new    ;" d="M142,62h-12c-2.209,0-4-1.791-4-4V46c0-2.209,1.791-4,4-4h12
		c2.209,0,4,1.791,4,4v12C146,60.209,144.209,62,142,62z"/>
	<path style="opacity:0.15;enable-background:new    ;" d="M172,62h-12c-2.209,0-4-1.791-4-4V46c0-2.209,1.791-4,4-4h12
		c2.209,0,4,1.791,4,4v12C176,60.209,174.209,62,172,62z"/>
	
		<linearGradient id="SVGID_10_" gradientUnits="userSpaceOnUse" x1="136" y1="-235.6667" x2="136" y2="-255.6917" gradientTransform="matrix(1 0 0 -1 0 -196)">
		<stop offset="0" style="stop-color:#FFFFFF"/>
		<stop offset="0.5172" style="stop-color:#FBFBFB"/>
		<stop offset="1" style="stop-color:#F0F0F0"/>
	</linearGradient>
	<path style="fill:url(#SVGID_10_);" d="M142,60h-12c-2.209,0-4-1.791-4-4V44c0-2.209,1.791-4,4-4h12c2.209,0,4,1.791,4,4v12
		C146,58.209,144.209,60,142,60z"/>
	
		<linearGradient id="SVGID_11_" gradientUnits="userSpaceOnUse" x1="166" y1="-235.6667" x2="166" y2="-255.6917" gradientTransform="matrix(1 0 0 -1 0 -196)">
		<stop offset="0" style="stop-color:#FFFFFF"/>
		<stop offset="0.5172" style="stop-color:#FBFBFB"/>
		<stop offset="1" style="stop-color:#F0F0F0"/>
	</linearGradient>
	<path style="fill:url(#SVGID_11_);" d="M172,60h-12c-2.209,0-4-1.791-4-4V44c0-2.209,1.791-4,4-4h12c2.209,0,4,1.791,4,4v12
		C176,58.209,174.209,60,172,60z"/>
	<path style="opacity:0.15;enable-background:new    ;" d="M142,92h-12c-2.209,0-4-1.791-4-4V76c0-2.209,1.791-4,4-4h12
		c2.209,0,4,1.791,4,4v12C146,90.209,144.209,92,142,92z"/>
	<path style="opacity:0.15;enable-background:new    ;" d="M172,92h-12c-2.209,0-4-1.791-4-4V76c0-2.209,1.791-4,4-4h12
		c2.209,0,4,1.791,4,4v12C176,90.209,174.209,92,172,92z"/>
	
		<linearGradient id="SVGID_12_" gradientUnits="userSpaceOnUse" x1="136" y1="-265.6667" x2="136" y2="-285.6917" gradientTransform="matrix(1 0 0 -1 0 -196)">
		<stop offset="0" style="stop-color:#FFFFFF"/>
		<stop offset="0.5172" style="stop-color:#FBFBFB"/>
		<stop offset="1" style="stop-color:#F0F0F0"/>
	</linearGradient>
	<path style="fill:url(#SVGID_12_);" d="M142,90h-12c-2.209,0-4-1.791-4-4V74c0-2.209,1.791-4,4-4h12c2.209,0,4,1.791,4,4v12
		C146,88.209,144.209,90,142,90z"/>
	
		<linearGradient id="SVGID_13_" gradientUnits="userSpaceOnUse" x1="166" y1="-265.6667" x2="166" y2="-285.6917" gradientTransform="matrix(1 0 0 -1 0 -196)">
		<stop offset="0" style="stop-color:#FFFFFF"/>
		<stop offset="0.5172" style="stop-color:#FBFBFB"/>
		<stop offset="1" style="stop-color:#F0F0F0"/>
	</linearGradient>
	<path style="fill:url(#SVGID_13_);" d="M172,90h-12c-2.209,0-4-1.791-4-4V74c0-2.209,1.791-4,4-4h12c2.209,0,4,1.791,4,4v12
		C176,88.209,174.209,90,172,90z"/>
	<path style="opacity:0.15;enable-background:new    ;" d="M113,32h-12c-2.209,0-4-1.791-4-4V16c0-2.209,1.791-4,4-4h12
		c2.209,0,4,1.791,4,4v12C117,30.209,115.209,32,113,32z"/>
	
		<linearGradient id="SVGID_14_" gradientUnits="userSpaceOnUse" x1="107" y1="-205.6667" x2="107" y2="-225.6917" gradientTransform="matrix(1 0 0 -1 0 -196)">
		<stop offset="0" style="stop-color:#FFFFFF"/>
		<stop offset="0.5172" style="stop-color:#FBFBFB"/>
		<stop offset="1" style="stop-color:#F0F0F0"/>
	</linearGradient>
	<path style="fill:url(#SVGID_14_);" d="M113,30h-12c-2.209,0-4-1.791-4-4V14c0-2.209,1.791-4,4-4h12c2.209,0,4,1.791,4,4v12
		C117,28.209,115.209,30,113,30z"/>
	<path style="opacity:0.15;enable-background:new    ;" d="M25,32H13c-2.209,0-4-1.791-4-4V16c0-2.209,1.791-4,4-4h12
		c2.209,0,4,1.791,4,4v12C29,30.209,27.209,32,25,32z"/>
	<path style="opacity:0.15;enable-background:new    ;" d="M55,32H43c-2.209,0-4-1.791-4-4V16c0-2.209,1.791-4,4-4h12
		c2.209,0,4,1.791,4,4v12C59,30.209,57.209,32,55,32z"/>
	
		<linearGradient id="SVGID_15_" gradientUnits="userSpaceOnUse" x1="19" y1="-205.6667" x2="19" y2="-225.6917" gradientTransform="matrix(1 0 0 -1 0 -196)">
		<stop offset="0" style="stop-color:#FFFFFF"/>
		<stop offset="0.5172" style="stop-color:#FBFBFB"/>
		<stop offset="1" style="stop-color:#F0F0F0"/>
	</linearGradient>
	<path style="fill:url(#SVGID_15_);" d="M25,30H13c-2.209,0-4-1.791-4-4V14c0-2.209,1.791-4,4-4h12c2.209,0,4,1.791,4,4v12
		C29,28.209,27.209,30,25,30z"/>
	
		<linearGradient id="SVGID_16_" gradientUnits="userSpaceOnUse" x1="49" y1="-205.6667" x2="49" y2="-225.6917" gradientTransform="matrix(1 0 0 -1 0 -196)">
		<stop offset="0" style="stop-color:#FFFFFF"/>
		<stop offset="0.5172" style="stop-color:#FBFBFB"/>
		<stop offset="1" style="stop-color:#F0F0F0"/>
	</linearGradient>
	<path style="fill:url(#SVGID_16_);" d="M55,30H43c-2.209,0-4-1.791-4-4V14c0-2.209,1.791-4,4-4h12c2.209,0,4,1.791,4,4v12
		C59,28.209,57.209,30,55,30z"/>
	<path style="opacity:0.15;enable-background:new    ;" d="M83,62H71c-2.209,0-4-1.791-4-4V46c0-2.209,1.791-4,4-4h12
		c2.209,0,4,1.791,4,4v12C87,60.209,85.209,62,83,62z"/>
	<path style="opacity:0.15;enable-background:new    ;" d="M113,62h-12c-2.209,0-4-1.791-4-4V46c0-2.209,1.791-4,4-4h12
		c2.209,0,4,1.791,4,4v12C117,60.209,115.209,62,113,62z"/>
	
		<linearGradient id="SVGID_17_" gradientUnits="userSpaceOnUse" x1="77" y1="-235.6667" x2="77" y2="-255.6917" gradientTransform="matrix(1 0 0 -1 0 -196)">
		<stop offset="0" style="stop-color:#FFFFFF"/>
		<stop offset="0.5172" style="stop-color:#FBFBFB"/>
		<stop offset="1" style="stop-color:#F0F0F0"/>
	</linearGradient>
	<path style="fill:url(#SVGID_17_);" d="M83,60H71c-2.209,0-4-1.791-4-4V44c0-2.209,1.791-4,4-4h12c2.209,0,4,1.791,4,4v12
		C87,58.209,85.209,60,83,60z"/>
	
		<linearGradient id="SVGID_18_" gradientUnits="userSpaceOnUse" x1="107" y1="-235.6667" x2="107" y2="-255.6917" gradientTransform="matrix(1 0 0 -1 0 -196)">
		<stop offset="0" style="stop-color:#FFFFFF"/>
		<stop offset="0.5172" style="stop-color:#FBFBFB"/>
		<stop offset="1" style="stop-color:#F0F0F0"/>
	</linearGradient>
	<path style="fill:url(#SVGID_18_);" d="M113,60h-12c-2.209,0-4-1.791-4-4V44c0-2.209,1.791-4,4-4h12c2.209,0,4,1.791,4,4v12
		C117,58.209,115.209,60,113,60z"/>
	<path style="opacity:0.15;enable-background:new    ;" d="M83,92H71c-2.209,0-4-1.791-4-4V76c0-2.209,1.791-4,4-4h12
		c2.209,0,4,1.791,4,4v12C87,90.209,85.209,92,83,92z"/>
	<path style="opacity:0.15;enable-background:new    ;" d="M113,92h-12c-2.209,0-4-1.791-4-4V76c0-2.209,1.791-4,4-4h12
		c2.209,0,4,1.791,4,4v12C117,90.209,115.209,92,113,92z"/>
	
		<linearGradient id="SVGID_19_" gradientUnits="userSpaceOnUse" x1="77" y1="-265.6667" x2="77" y2="-285.6917" gradientTransform="matrix(1 0 0 -1 0 -196)">
		<stop offset="0" style="stop-color:#FFFFFF"/>
		<stop offset="0.5172" style="stop-color:#FBFBFB"/>
		<stop offset="1" style="stop-color:#F0F0F0"/>
	</linearGradient>
	<path style="fill:url(#SVGID_19_);" d="M83,90H71c-2.209,0-4-1.791-4-4V74c0-2.209,1.791-4,4-4h12c2.209,0,4,1.791,4,4v12
		C87,88.209,85.209,90,83,90z"/>
	<path style="opacity:0.15;enable-background:new    ;" d="M54,92H42c-2.209,0-4-1.791-4-4V76c0-2.209,1.791-4,4-4h12
		c2.209,0,4,1.791,4,4v12C58,90.209,56.209,92,54,92z"/>
	
		<linearGradient id="SVGID_20_" gradientUnits="userSpaceOnUse" x1="48" y1="-265.6667" x2="48" y2="-285.6917" gradientTransform="matrix(1 0 0 -1 0 -196)">
		<stop offset="0" style="stop-color:#FFFFFF"/>
		<stop offset="0.5172" style="stop-color:#FBFBFB"/>
		<stop offset="1" style="stop-color:#F0F0F0"/>
	</linearGradient>
	<path style="fill:url(#SVGID_20_);" d="M54,90H42c-2.209,0-4-1.791-4-4V74c0-2.209,1.791-4,4-4h12c2.209,0,4,1.791,4,4v12
		C58,88.209,56.209,90,54,90z"/>
	<path style="opacity:0.15;enable-background:new    ;" d="M26,92H14c-2.209,0-4-1.791-4-4V76c0-2.209,1.791-4,4-4h12
		c2.209,0,4,1.791,4,4v12C30,90.209,28.209,92,26,92z"/>
	
		<linearGradient id="SVGID_21_" gradientUnits="userSpaceOnUse" x1="20" y1="-265.6667" x2="20" y2="-285.6917" gradientTransform="matrix(1 0 0 -1 0 -196)">
		<stop offset="0" style="stop-color:#FFFFFF"/>
		<stop offset="0.5172" style="stop-color:#FBFBFB"/>
		<stop offset="1" style="stop-color:#F0F0F0"/>
	</linearGradient>
	<path style="fill:url(#SVGID_21_);" d="M26,90H14c-2.209,0-4-1.791-4-4V74c0-2.209,1.791-4,4-4h12c2.209,0,4,1.791,4,4v12
		C30,88.209,28.209,90,26,90z"/>
	
		<linearGradient id="SVGID_22_" gradientUnits="userSpaceOnUse" x1="107" y1="-265.6667" x2="107" y2="-285.6917" gradientTransform="matrix(1 0 0 -1 0 -196)">
		<stop offset="0" style="stop-color:#FFFFFF"/>
		<stop offset="0.5172" style="stop-color:#FBFBFB"/>
		<stop offset="1" style="stop-color:#F0F0F0"/>
	</linearGradient>
	<path style="fill:url(#SVGID_22_);" d="M113,90h-12c-2.209,0-4-1.791-4-4V74c0-2.209,1.791-4,4-4h12c2.209,0,4,1.791,4,4v12
		C117,88.209,115.209,90,113,90z"/>
	
		<linearGradient id="SVGID_23_" gradientUnits="userSpaceOnUse" x1="258" y1="-236.3472" x2="258" y2="-287.0714" gradientTransform="matrix(1 0 0 -1 0 -196)">
		<stop offset="0" style="stop-color:#FFFFFF"/>
		<stop offset="0.5172" style="stop-color:#FBFBFB"/>
		<stop offset="1" style="stop-color:#F0F0F0"/>
	</linearGradient>
	<path style="fill:url(#SVGID_23_);" d="M279,40h-12c-2.209,0-4,1.791-4,4v22c0,1.105-0.895,4-2,4h-24c-2.209,0-4,1.791-4,4v12
		c0,2.209,1.791,4,4,4h42c2.209,0,4-1.791,4-4V44C283,41.791,281.209,40,279,40z"/>
</g>
</svg>