<svg xmlns="http://www.w3.org/2000/svg"  viewBox="0 0 64 64" width="256px" height="256px"><path fill="#faefde" d="M6 15L14 9 48 9 56 14 56 16 5.139 16.776z"/><path fill="#efd8be" d="M5 15L56 15 57 17 53 29 57 55 55 57 7 57 5 55 8 40 5 26z"/><path fill="#faefde" d="M54 35L50 15 56 15 56 17 53 28z"/><path fill="#cda1a7" d="M8 40L11 52 11 57.167 6 57 5.833 53.167z"/><path fill="#cda1a7" d="M57,57H5v-1c0-2.209,1.791-4,4-4h44c2.209,0,4,1.791,4,4V57z"/><path fill="#8d6c9f" d="M16 50.057c-.552 0-1 .447-1 1v2c0 .553.448 1 1 1s1-.447 1-1v-2C17 50.504 16.552 50.057 16 50.057zM11 50.057c-.552 0-1 .447-1 1v2c0 .553.448 1 1 1s1-.447 1-1v-2C12 50.504 11.552 50.057 11 50.057zM21 50.057c-.552 0-1 .447-1 1v2c0 .553.448 1 1 1s1-.447 1-1v-2C22 50.504 21.552 50.057 21 50.057zM26 50.057c-.552 0-1 .447-1 1v2c0 .553.448 1 1 1s1-.447 1-1v-2C27 50.504 26.552 50.057 26 50.057zM31 50.057c-.552 0-1 .447-1 1v2c0 .553.448 1 1 1s1-.447 1-1v-2C32 50.504 31.552 50.057 31 50.057zM36 50.057c-.552 0-1 .447-1 1v2c0 .553.448 1 1 1s1-.447 1-1v-2C37 50.504 36.552 50.057 36 50.057zM41 50.057c-.552 0-1 .447-1 1v2c0 .553.448 1 1 1s1-.447 1-1v-2C42 50.504 41.552 50.057 41 50.057zM46 50.057c-.552 0-1 .447-1 1v2c0 .553.448 1 1 1s1-.447 1-1v-2C47 50.504 46.552 50.057 46 50.057zM51 50.057c-.552 0-1 .447-1 1v2c0 .553.448 1 1 1s1-.447 1-1v-2C52 50.504 51.552 50.057 51 50.057zM52 15.057c0-.553-.448-1-1-1h-4c-.552 0-1 .447-1 1s.448 1 1 1h4C51.552 16.057 52 15.609 52 15.057z"/><path fill="#8d6c9f" d="M57.632,54.542l-2.865-18.535l-0.01-0.063l-0.738-4.773l3.313-13.357 c0.484-1.953-0.243-3.996-1.853-5.204L50.667,9c-0.859-0.645-1.925-1-3-1H14.333c-1.076,0-2.141,0.355-3,1L6,13 c-1.252,0.939-2,2.435-2,4v9c0,0.071,0.007,0.142,0.022,0.211l2.959,13.685L4.426,54.482c-0.153,0.875,0.086,1.767,0.658,2.447 C5.655,57.609,6.492,58,7.381,58h47.286c0.877,0,1.707-0.382,2.278-1.048C57.516,56.287,57.766,55.408,57.632,54.542z M12.533,10.6 c0.516-0.387,1.155-0.6,1.8-0.6H30v4.057H7.924L12.533,10.6z M55.426,55.65C55.233,55.876,54.964,56,54.667,56H7.381 c-0.406,0-0.654-0.224-0.766-0.356c-0.112-0.134-0.289-0.417-0.219-0.815l1.707-9.746l0.051,0.238 c0.102,0.469,0.516,0.789,0.977,0.789c0.07,0,0.141-0.007,0.212-0.022c0.54-0.117,0.883-0.649,0.766-1.188L6,25.893V17 c0-0.326,0.072-0.64,0.173-0.943H43c0.552,0,1-0.447,1-1s-0.448-1-1-1H32V10h15.667c0.646,0,1.285,0.213,1.8,0.6l4.812,3.609 c0.966,0.726,1.403,1.951,1.112,3.122l-2.163,8.722l-0.677-4.382c-0.084-0.546-0.596-0.923-1.141-0.836 c-0.546,0.084-0.92,0.596-0.835,1.141l1.438,9.302v0l3.644,23.57C55.701,55.141,55.619,55.426,55.426,55.65z"/><path fill="#8d6c9f" d="M41 42H21c-.552 0-1 .447-1 1s.448 1 1 1h20c.552 0 1-.447 1-1S41.552 42 41 42zM24.999 23c.033 0 .067-.002.101-.005l10-1c.549-.055.95-.545.896-1.095-.055-.549-.546-.946-1.095-.896l-10 1c-.549.055-.95.545-.896 1.095C24.057 22.615 24.491 23 24.999 23zM22.707 32.707L24 31.414V39c0 .553.448 1 1 1s1-.447 1-1v-7.586l1.293 1.293C27.488 32.902 27.744 33 28 33s.512-.098.707-.293c.391-.391.391-1.023 0-1.414l-3-3c-.391-.391-1.023-.391-1.414 0l-3 3c-.391.391-.391 1.023 0 1.414S22.316 33.098 22.707 32.707zM33.293 32.707c.391.391 1.023.391 1.414 0L36 31.414V39c0 .553.448 1 1 1s1-.447 1-1v-7.586l1.293 1.293C39.488 32.902 39.744 33 40 33s.512-.098.707-.293c.391-.391.391-1.023 0-1.414l-3-3c-.391-.391-1.023-.391-1.414 0l-3 3C32.902 31.684 32.902 32.316 33.293 32.707z"/></svg>