<svg fill="#000000" xmlns="http://www.w3.org/2000/svg" viewBox="0 0 50 50" width="50px" height="50px"><path fill="none" stroke="#000000" stroke-linejoin="round" stroke-miterlimit="10" stroke-width="2" d="M46 13L46 14 4 14 4 13 1 13 1 41 4 41 4 40 46 40 46 41 49 41 49 13zM49 13L45 8 43 8 43 9 7 9 7 8 5 8 1 13"/><path fill="none" stroke="#000000" stroke-linecap="round" stroke-linejoin="round" stroke-miterlimit="10" stroke-width="2" d="M25 36L25 18M31 36L31 18M37 36L37 18M43 36L43 18M7 36L7 18M13 36L13 18M19 36L19 18"/></svg>