<?xml version="1.0" encoding="UTF-8"?>
<svg xmlns="http://www.w3.org/2000/svg" xmlns:xlink="http://www.w3.org/1999/xlink" width="128pt" height="128pt" viewBox="0 0 128 128" version="1.1">
<g id="surface6330470">
<path style=" stroke:none;fill-rule:nonzero;fill:rgb(98.039216%,93.725491%,87.058824%);fill-opacity:1;" d="M 104 26 L 2 26 L 18 14 L 90 14 Z M 104 26 "/>
<path style=" stroke:none;fill-rule:nonzero;fill:rgb(93.725491%,84.705883%,74.509805%);fill-opacity:1;" d="M 104 26 L 4 26 C 2.894531 26 2 26.894531 2 28 L 2 108 C 2 109.105469 2.894531 110 4 110 L 104 110 C 105.105469 110 106 109.105469 106 108 L 106 28 C 106 26.894531 105.105469 26 104 26 Z M 104 26 "/>
<path style=" stroke:none;fill-rule:nonzero;fill:rgb(80.392158%,63.137257%,65.490198%);fill-opacity:1;" d="M 106 110 L 2 110 L 2 108 C 2 103.582031 5.582031 100 10 100 L 98 100 C 102.417969 100 106 103.582031 106 108 Z M 106 110 "/>
<path style=" stroke:none;fill-rule:nonzero;fill:rgb(76.078433%,80.392158%,90.588236%);fill-opacity:1;" d="M 62 62 L 104 62 L 96 54 L 104 46 L 126 68 L 104 90 L 96 82 L 104 74 L 62 74 Z M 62 62 "/>
<path style=" stroke:none;fill-rule:nonzero;fill:rgb(80.392158%,63.137257%,65.490198%);fill-opacity:1;" d="M 64 46 L 44 46 C 41.789062 46 40 44.210938 40 42 C 40 39.789062 41.789062 38 44 38 L 64 38 C 66.210938 38 68 39.789062 68 42 C 68 44.210938 66.210938 46 64 46 Z M 64 46 "/>
<path style=" stroke:none;fill-rule:nonzero;fill:rgb(55.29412%,42.352942%,62.352943%);fill-opacity:1;" d="M 20 96.113281 C 18.894531 96.113281 18 97.011719 18 98.113281 L 18 102.113281 C 18 103.21875 18.894531 104.113281 20 104.113281 C 21.105469 104.113281 22 103.21875 22 102.113281 L 22 98.113281 C 22 97.011719 21.105469 96.113281 20 96.113281 Z M 10 96.113281 C 8.894531 96.113281 8 97.011719 8 98.113281 L 8 102.113281 C 8 103.21875 8.894531 104.113281 10 104.113281 C 11.105469 104.113281 12 103.21875 12 102.113281 L 12 98.113281 C 12 97.011719 11.105469 96.113281 10 96.113281 Z M 30 96.113281 C 28.894531 96.113281 28 97.011719 28 98.113281 L 28 102.113281 C 28 103.21875 28.894531 104.113281 30 104.113281 C 31.105469 104.113281 32 103.21875 32 102.113281 L 32 98.113281 C 32 97.011719 31.105469 96.113281 30 96.113281 Z M 40 96.113281 C 38.894531 96.113281 38 97.011719 38 98.113281 L 38 102.113281 C 38 103.21875 38.894531 104.113281 40 104.113281 C 41.105469 104.113281 42 103.21875 42 102.113281 L 42 98.113281 C 42 97.011719 41.105469 96.113281 40 96.113281 Z M 50 96.113281 C 48.894531 96.113281 48 97.011719 48 98.113281 L 48 102.113281 C 48 103.21875 48.894531 104.113281 50 104.113281 C 51.105469 104.113281 52 103.21875 52 102.113281 L 52 98.113281 C 52 97.011719 51.105469 96.113281 50 96.113281 Z M 60 96.113281 C 58.894531 96.113281 58 97.011719 58 98.113281 L 58 102.113281 C 58 103.21875 58.894531 104.113281 60 104.113281 C 61.105469 104.113281 62 103.21875 62 102.113281 L 62 98.113281 C 62 97.011719 61.105469 96.113281 60 96.113281 Z M 70 96.113281 C 68.894531 96.113281 68 97.011719 68 98.113281 L 68 102.113281 C 68 103.21875 68.894531 104.113281 70 104.113281 C 71.105469 104.113281 72 103.21875 72 102.113281 L 72 98.113281 C 72 97.011719 71.105469 96.113281 70 96.113281 Z M 80 96.113281 C 78.894531 96.113281 78 97.011719 78 98.113281 L 78 102.113281 C 78 103.21875 78.894531 104.113281 80 104.113281 C 81.105469 104.113281 82 103.21875 82 102.113281 L 82 98.113281 C 82 97.011719 81.105469 96.113281 80 96.113281 Z M 90 96.113281 C 88.894531 96.113281 88 97.011719 88 98.113281 L 88 102.113281 C 88 103.21875 88.894531 104.113281 90 104.113281 C 91.105469 104.113281 92 103.21875 92 102.113281 L 92 98.113281 C 92 97.011719 91.105469 96.113281 90 96.113281 Z M 100 96.113281 C 98.894531 96.113281 98 97.011719 98 98.113281 L 98 102.113281 C 98 103.21875 98.894531 104.113281 100 104.113281 C 101.105469 104.113281 102 103.21875 102 102.113281 L 102 98.113281 C 102 97.011719 101.105469 96.113281 100 96.113281 Z M 86 28.113281 L 94 28.113281 C 95.105469 28.113281 96 27.21875 96 26.113281 C 96 25.011719 95.105469 24.113281 94 24.113281 L 86 24.113281 C 84.894531 24.113281 84 25.011719 84 26.113281 C 84 27.21875 84.894531 28.113281 86 28.113281 Z M 86 28.113281 "/>
<path style=" stroke:none;fill-rule:nonzero;fill:rgb(55.29412%,42.352942%,62.352943%);fill-opacity:1;" d="M 127.421875 66.578125 L 108 47.160156 L 108 30 C 108 26.859375 106.5 23.878906 104 22 L 93.339844 14 C 91.621094 12.699219 89.480469 12 87.339844 12 L 20.660156 12 C 18.519531 12 16.378906 12.699219 14.660156 14 L 4 22 C 1.5 23.878906 0 26.859375 0 30 L 0 106 C 0 109.300781 2.699219 112 6 112 L 102 112 C 105.300781 112 108 109.300781 108 106 L 108 88.839844 L 127.421875 69.421875 C 128.199219 68.640625 128.199219 67.359375 127.421875 66.578125 Z M 17.058594 17.199219 C 18.101562 16.421875 19.378906 16 20.660156 16 L 52 16 L 52 24.113281 L 7.847656 24.113281 Z M 104 106 C 104 107.101562 103.101562 108 102 108 L 6 108 C 4.898438 108 4 107.101562 4 106 L 4 30 C 4 29.351562 4.140625 28.722656 4.347656 28.113281 L 78 28.113281 C 79.105469 28.113281 80 27.21875 80 26.113281 C 80 25.011719 79.105469 24.113281 78 24.113281 L 56 24.113281 L 56 16 L 87.339844 16 C 88.621094 16 89.898438 16.421875 90.941406 17.199219 L 101.601562 25.199219 C 103.101562 26.320312 104 28.121094 104 30 L 104 44 C 103.480469 44 102.960938 44.199219 102.578125 44.578125 L 94.578125 52.578125 C 93.800781 53.359375 93.800781 54.640625 94.578125 55.421875 L 99.179688 60 L 62 60 C 60.898438 60 60 60.898438 60 62 L 60 74 C 60 75.101562 60.898438 76 62 76 L 99.179688 76 L 94.578125 80.578125 C 93.800781 81.359375 93.800781 82.640625 94.578125 83.421875 L 102.578125 91.421875 C 102.980469 91.800781 103.480469 92 104 92 Z M 108 83.179688 L 104 87.179688 L 98.820312 82 L 104 76.839844 L 105.421875 75.421875 C 105.980469 74.839844 106.160156 73.980469 105.839844 73.238281 C 105.539062 72.480469 104.800781 72 104 72 L 64 72 L 64 64 L 104 64 C 104.800781 64 105.539062 63.519531 105.839844 62.761719 C 106.160156 62.019531 105.980469 61.160156 105.421875 60.578125 L 104 59.160156 L 98.820312 54 L 104 48.820312 L 123.179688 68 Z M 108 83.179688 "/>
<path style=" stroke:none;fill-rule:nonzero;fill:rgb(55.29412%,42.352942%,62.352943%);fill-opacity:1;" d="M 70 42 C 70 38.691406 67.308594 36 64 36 L 44 36 C 40.691406 36 38 38.691406 38 42 C 38 45.308594 40.691406 48 44 48 L 64 48 C 67.308594 48 70 45.308594 70 42 Z M 42 42 C 42 40.898438 42.898438 40 44 40 L 64 40 C 65.101562 40 66 40.898438 66 42 C 66 43.101562 65.101562 44 64 44 L 44 44 C 42.898438 44 42 43.101562 42 42 Z M 42 42 "/>
</g>
</svg>
